<?xml version="1.0" encoding="UTF-8" standalone="no"?>
<!DOCTYPE svg PUBLIC "-//W3C//DTD SVG 1.1//EN"
 "http://www.w3.org/Graphics/SVG/1.1/DTD/svg11.dtd">
<!-- Generated by graphviz version 2.40.1 (20161225.0304)
 -->
<!-- Title: dependencies Pages: 1 -->
<svg width="504pt" height="211pt"
 viewBox="0.00 0.00 504.00 211.00" xmlns="http://www.w3.org/2000/svg" xmlns:xlink="http://www.w3.org/1999/xlink">
<g id="graph0" class="graph" transform="scale(1 1) rotate(0) translate(4 207)">
<title>dependencies</title>
<polygon fill="#ffffff" stroke="transparent" points="-4,4 -4,-207 500,-207 500,4 -4,4"/>
<text text-anchor="start" x="227.0091" y="-42.4" font-family="sans-serif" font-weight="bold" font-size="14.00" fill="#000000">Legend</text>
<polygon fill="#ffffb3" stroke="transparent" points="14,-10 14,-30 34,-30 34,-10 14,-10"/>
<text text-anchor="start" x="37.629" y="-15.4" font-family="sans-serif" font-size="14.00" fill="#000000"> &#160;Declarations</text>
<polygon fill="#8dd3c7" stroke="transparent" points="127,-10 127,-30 147,-30 147,-10 127,-10"/>
<text text-anchor="start" x="150.7251" y="-15.4" font-family="sans-serif" font-size="14.00" fill="#000000"> &#160;Module</text>
<polygon fill="#80b1d3" stroke="transparent" points="213,-10 213,-30 233,-30 233,-10 213,-10"/>
<text text-anchor="start" x="236.7812" y="-15.4" font-family="sans-serif" font-size="14.00" fill="#000000"> &#160;Bootstrap</text>
<polygon fill="#fdb462" stroke="transparent" points="310,-10 310,-30 330,-30 330,-10 310,-10"/>
<text text-anchor="start" x="333.6732" y="-15.4" font-family="sans-serif" font-size="14.00" fill="#000000"> &#160;Providers</text>
<polygon fill="#fb8072" stroke="transparent" points="406,-10 406,-30 426,-30 426,-10 406,-10"/>
<text text-anchor="start" x="429.7258" y="-15.4" font-family="sans-serif" font-size="14.00" fill="#000000"> &#160;Exports</text>
<g id="clust1" class="cluster">
<title>cluster_UiFeaturesModule</title>
<polygon fill="none" stroke="#000000" stroke-dasharray="1,5" points="91,-70 91,-195 405,-195 405,-70 91,-70"/>
</g>
<g id="clust3" class="cluster">
<title>cluster_UiFeaturesModule_imports</title>
<polygon fill="none" stroke="#000000" points="99,-78 99,-130 397,-130 397,-78 99,-78"/>
</g>
<!-- ThemeModule -->
<g id="node1" class="node">
<title>ThemeModule</title>
<polygon fill="#8dd3c7" stroke="#000000" points="389.4231,-122 386.4231,-126 365.4231,-126 362.4231,-122 290.5769,-122 290.5769,-86 389.4231,-86 389.4231,-122"/>
<text text-anchor="middle" x="340" y="-99.8" font-family="Times,serif" font-size="14.00" fill="#000000">ThemeModule</text>
</g>
<!-- UiFeaturesModule -->
<g id="node3" class="node">
<title>UiFeaturesModule</title>
<polygon fill="#8dd3c7" stroke="#000000" points="323.4692,-187 320.4692,-191 299.4692,-191 296.4692,-187 202.5308,-187 202.5308,-151 323.4692,-151 323.4692,-187"/>
<text text-anchor="middle" x="263" y="-164.8" font-family="Times,serif" font-size="14.00" fill="#000000">UiFeaturesModule</text>
</g>
<!-- ThemeModule&#45;&gt;UiFeaturesModule -->
<g id="edge1" class="edge">
<title>ThemeModule&#45;&gt;UiFeaturesModule</title>
<path fill="none" stroke="#000000" d="M307.1368,-122.1061C307.1368,-122.1061 307.1368,-140.991 307.1368,-140.991"/>
<polygon fill="#000000" stroke="#000000" points="303.6368,-140.9909 307.1368,-150.991 310.6368,-140.991 303.6368,-140.9909"/>
</g>
<!-- UiFeaturesRoutingModule -->
<g id="node2" class="node">
<title>UiFeaturesRoutingModule</title>
<polygon fill="#8dd3c7" stroke="#000000" points="273.087,-122 270.087,-126 249.087,-126 246.087,-122 106.913,-122 106.913,-86 273.087,-86 273.087,-122"/>
<text text-anchor="middle" x="190" y="-99.8" font-family="Times,serif" font-size="14.00" fill="#000000">UiFeaturesRoutingModule</text>
</g>
<!-- UiFeaturesRoutingModule&#45;&gt;UiFeaturesModule -->
<g id="edge2" class="edge">
<title>UiFeaturesRoutingModule&#45;&gt;UiFeaturesModule</title>
<path fill="none" stroke="#000000" d="M237.7795,-122.1061C237.7795,-122.1061 237.7795,-140.991 237.7795,-140.991"/>
<polygon fill="#000000" stroke="#000000" points="234.2795,-140.9909 237.7795,-150.991 241.2795,-140.991 234.2795,-140.9909"/>
</g>
</g>
</svg>
