<?xml version="1.0" encoding="UTF-8" standalone="no"?>
<!DOCTYPE svg PUBLIC "-//W3C//DTD SVG 1.1//EN"
 "http://www.w3.org/Graphics/SVG/1.1/DTD/svg11.dtd">
<!-- Generated by graphviz version 2.40.1 (20161225.0304)
 -->
<!-- Title: dependencies Pages: 1 -->
<svg width="2845pt" height="211pt"
 viewBox="0.00 0.00 2845.00 211.00" xmlns="http://www.w3.org/2000/svg" xmlns:xlink="http://www.w3.org/1999/xlink">
<g id="graph0" class="graph" transform="scale(1 1) rotate(0) translate(4 207)">
<title>dependencies</title>
<polygon fill="#ffffff" stroke="transparent" points="-4,4 -4,-207 2841,-207 2841,4 -4,4"/>
<text text-anchor="start" x="1397.5091" y="-42.4" font-family="sans-serif" font-weight="bold" font-size="14.00" fill="#000000">Legend</text>
<polygon fill="#ffffb3" stroke="transparent" points="1184.5,-10 1184.5,-30 1204.5,-30 1204.5,-10 1184.5,-10"/>
<text text-anchor="start" x="1208.129" y="-15.4" font-family="sans-serif" font-size="14.00" fill="#000000"> &#160;Declarations</text>
<polygon fill="#8dd3c7" stroke="transparent" points="1297.5,-10 1297.5,-30 1317.5,-30 1317.5,-10 1297.5,-10"/>
<text text-anchor="start" x="1321.2251" y="-15.4" font-family="sans-serif" font-size="14.00" fill="#000000"> &#160;Module</text>
<polygon fill="#80b1d3" stroke="transparent" points="1383.5,-10 1383.5,-30 1403.5,-30 1403.5,-10 1383.5,-10"/>
<text text-anchor="start" x="1407.2812" y="-15.4" font-family="sans-serif" font-size="14.00" fill="#000000"> &#160;Bootstrap</text>
<polygon fill="#fdb462" stroke="transparent" points="1480.5,-10 1480.5,-30 1500.5,-30 1500.5,-10 1480.5,-10"/>
<text text-anchor="start" x="1504.1732" y="-15.4" font-family="sans-serif" font-size="14.00" fill="#000000"> &#160;Providers</text>
<polygon fill="#fb8072" stroke="transparent" points="1576.5,-10 1576.5,-30 1596.5,-30 1596.5,-10 1576.5,-10"/>
<text text-anchor="start" x="1600.2258" y="-15.4" font-family="sans-serif" font-size="14.00" fill="#000000"> &#160;Exports</text>
<g id="clust1" class="cluster">
<title>cluster_DashboardModule</title>
<polygon fill="none" stroke="#000000" stroke-dasharray="1,5" points="8,-70 8,-195 2829,-195 2829,-70 8,-70"/>
</g>
<g id="clust2" class="cluster">
<title>cluster_DashboardModule_declarations</title>
<polygon fill="none" stroke="#000000" points="252,-78 252,-130 2821,-130 2821,-78 252,-78"/>
</g>
<g id="clust19" class="cluster">
<title>cluster_DashboardModule_imports</title>
<polygon fill="none" stroke="#000000" points="16,-78 16,-130 244,-130 244,-78 16,-78"/>
</g>
<!-- DashboardComponent -->
<g id="node1" class="node">
<title>DashboardComponent</title>
<polygon fill="#ffffb3" stroke="#000000" points="2812.9734,-122 2671.0266,-122 2671.0266,-86 2812.9734,-86 2812.9734,-122"/>
<text text-anchor="middle" x="2742" y="-99.8" font-family="Times,serif" font-size="14.00" fill="#000000">DashboardComponent</text>
</g>
<!-- DashboardModule -->
<g id="node17" class="node">
<title>DashboardModule</title>
<polygon fill="#8dd3c7" stroke="#000000" points="1386.191,-187 1383.191,-191 1362.191,-191 1359.191,-187 1265.809,-187 1265.809,-151 1386.191,-151 1386.191,-187"/>
<text text-anchor="middle" x="1326" y="-164.8" font-family="Times,serif" font-size="14.00" fill="#000000">DashboardModule</text>
</g>
<!-- DashboardComponent&#45;&gt;DashboardModule -->
<g id="edge1" class="edge">
<title>DashboardComponent&#45;&gt;DashboardModule</title>
<path fill="none" stroke="#000000" d="M2742,-122.3228C2742,-145.6602 2742,-183 2742,-183 2742,-183 1396.3908,-183 1396.3908,-183"/>
<polygon fill="#000000" stroke="#000000" points="1396.3908,-179.5001 1386.3908,-183 1396.3907,-186.5001 1396.3908,-179.5001"/>
</g>
<!-- StatusCardComponent -->
<g id="node2" class="node">
<title>StatusCardComponent</title>
<polygon fill="#ffffb3" stroke="#000000" points="2653.2674,-122 2510.7326,-122 2510.7326,-86 2653.2674,-86 2653.2674,-122"/>
<text text-anchor="middle" x="2582" y="-99.8" font-family="Times,serif" font-size="14.00" fill="#000000">StatusCardComponent</text>
</g>
<!-- StatusCardComponent&#45;&gt;DashboardModule -->
<g id="edge2" class="edge">
<title>StatusCardComponent&#45;&gt;DashboardModule</title>
<path fill="none" stroke="#000000" d="M2582,-122.1554C2582,-144.3519 2582,-179 2582,-179 2582,-179 1396.1563,-179 1396.1563,-179"/>
<polygon fill="#000000" stroke="#000000" points="1396.1564,-175.5001 1386.1563,-179 1396.1563,-182.5001 1396.1564,-175.5001"/>
</g>
<!-- TemperatureDraggerComponent -->
<g id="node3" class="node">
<title>TemperatureDraggerComponent</title>
<polygon fill="#ffffb3" stroke="#000000" points="2492.203,-122 2293.797,-122 2293.797,-86 2492.203,-86 2492.203,-122"/>
<text text-anchor="middle" x="2393" y="-99.8" font-family="Times,serif" font-size="14.00" fill="#000000">TemperatureDraggerComponent</text>
</g>
<!-- TemperatureDraggerComponent&#45;&gt;DashboardModule -->
<g id="edge3" class="edge">
<title>TemperatureDraggerComponent&#45;&gt;DashboardModule</title>
<path fill="none" stroke="#000000" d="M2393,-122.2843C2393,-143.3211 2393,-175 2393,-175 2393,-175 1396.4237,-175 1396.4237,-175"/>
<polygon fill="#000000" stroke="#000000" points="1396.4238,-171.5001 1386.4237,-175 1396.4237,-178.5001 1396.4238,-171.5001"/>
</g>
<!-- ContactsComponent -->
<g id="node4" class="node">
<title>ContactsComponent</title>
<polygon fill="#ffffb3" stroke="#000000" points="2275.3244,-122 2144.6756,-122 2144.6756,-86 2275.3244,-86 2275.3244,-122"/>
<text text-anchor="middle" x="2210" y="-99.8" font-family="Times,serif" font-size="14.00" fill="#000000">ContactsComponent</text>
</g>
<!-- ContactsComponent&#45;&gt;DashboardModule -->
<g id="edge4" class="edge">
<title>ContactsComponent&#45;&gt;DashboardModule</title>
<path fill="none" stroke="#000000" d="M2210,-122.308C2210,-142.1455 2210,-171 2210,-171 2210,-171 1396.413,-171 1396.413,-171"/>
<polygon fill="#000000" stroke="#000000" points="1396.413,-167.5001 1386.413,-171 1396.4129,-174.5001 1396.413,-167.5001"/>
</g>
<!-- RoomSelectorComponent -->
<g id="node5" class="node">
<title>RoomSelectorComponent</title>
<polygon fill="#ffffb3" stroke="#000000" points="2126.9284,-122 1965.0716,-122 1965.0716,-86 2126.9284,-86 2126.9284,-122"/>
<text text-anchor="middle" x="2046" y="-99.8" font-family="Times,serif" font-size="14.00" fill="#000000">RoomSelectorComponent</text>
</g>
<!-- RoomSelectorComponent&#45;&gt;DashboardModule -->
<g id="edge5" class="edge">
<title>RoomSelectorComponent&#45;&gt;DashboardModule</title>
<path fill="none" stroke="#000000" d="M2046,-122.2222C2046,-140.8285 2046,-167 2046,-167 2046,-167 1396.1484,-167 1396.1484,-167"/>
<polygon fill="#000000" stroke="#000000" points="1396.1484,-163.5001 1386.1484,-167 1396.1484,-170.5001 1396.1484,-163.5001"/>
</g>
<!-- TemperatureComponent -->
<g id="node6" class="node">
<title>TemperatureComponent</title>
<polygon fill="#ffffb3" stroke="#000000" points="1947.3459,-122 1794.6541,-122 1794.6541,-86 1947.3459,-86 1947.3459,-122"/>
<text text-anchor="middle" x="1871" y="-99.8" font-family="Times,serif" font-size="14.00" fill="#000000">TemperatureComponent</text>
</g>
<!-- TemperatureComponent&#45;&gt;DashboardModule -->
<g id="edge6" class="edge">
<title>TemperatureComponent&#45;&gt;DashboardModule</title>
<path fill="none" stroke="#000000" d="M1871,-122.0225C1871,-139.3734 1871,-163 1871,-163 1871,-163 1396.145,-163 1396.145,-163"/>
<polygon fill="#000000" stroke="#000000" points="1396.145,-159.5001 1386.145,-163 1396.1449,-166.5001 1396.145,-159.5001"/>
</g>
<!-- RoomsComponent -->
<g id="node7" class="node">
<title>RoomsComponent</title>
<polygon fill="#ffffb3" stroke="#000000" points="1776.5042,-122 1655.4958,-122 1655.4958,-86 1776.5042,-86 1776.5042,-122"/>
<text text-anchor="middle" x="1716" y="-99.8" font-family="Times,serif" font-size="14.00" fill="#000000">RoomsComponent</text>
</g>
<!-- RoomsComponent&#45;&gt;DashboardModule -->
<g id="edge7" class="edge">
<title>RoomsComponent&#45;&gt;DashboardModule</title>
<path fill="none" stroke="#000000" d="M1716,-122.0091C1716,-138.0494 1716,-159 1716,-159 1716,-159 1396.5096,-159 1396.5096,-159"/>
<polygon fill="#000000" stroke="#000000" points="1396.5096,-155.5001 1386.5096,-159 1396.5096,-162.5001 1396.5096,-155.5001"/>
</g>
<!-- KittenComponent -->
<g id="node8" class="node">
<title>KittenComponent</title>
<polygon fill="#ffffb3" stroke="#000000" points="1637.3259,-122 1520.6741,-122 1520.6741,-86 1637.3259,-86 1637.3259,-122"/>
<text text-anchor="middle" x="1579" y="-99.8" font-family="Times,serif" font-size="14.00" fill="#000000">KittenComponent</text>
</g>
<!-- KittenComponent&#45;&gt;DashboardModule -->
<g id="edge8" class="edge">
<title>KittenComponent&#45;&gt;DashboardModule</title>
<path fill="none" stroke="#000000" d="M1579,-122.1243C1579,-136.7832 1579,-155 1579,-155 1579,-155 1396.2784,-155 1396.2784,-155"/>
<polygon fill="#000000" stroke="#000000" points="1396.2784,-151.5001 1386.2784,-155 1396.2783,-158.5001 1396.2784,-151.5001"/>
</g>
<!-- SecurityCamerasComponent -->
<g id="node9" class="node">
<title>SecurityCamerasComponent</title>
<polygon fill="#ffffb3" stroke="#000000" points="1502.4622,-122 1325.5378,-122 1325.5378,-86 1502.4622,-86 1502.4622,-122"/>
<text text-anchor="middle" x="1414" y="-99.8" font-family="Times,serif" font-size="14.00" fill="#000000">SecurityCamerasComponent</text>
</g>
<!-- SecurityCamerasComponent&#45;&gt;DashboardModule -->
<g id="edge9" class="edge">
<title>SecurityCamerasComponent&#45;&gt;DashboardModule</title>
<path fill="none" stroke="#000000" d="M1355.8072,-122.1061C1355.8072,-122.1061 1355.8072,-140.991 1355.8072,-140.991"/>
<polygon fill="#000000" stroke="#000000" points="1352.3072,-140.9909 1355.8072,-150.991 1359.3072,-140.991 1352.3072,-140.9909"/>
</g>
<!-- ElectricityComponent -->
<g id="node10" class="node">
<title>ElectricityComponent</title>
<polygon fill="#ffffb3" stroke="#000000" points="1307.6429,-122 1168.3571,-122 1168.3571,-86 1307.6429,-86 1307.6429,-122"/>
<text text-anchor="middle" x="1238" y="-99.8" font-family="Times,serif" font-size="14.00" fill="#000000">ElectricityComponent</text>
</g>
<!-- ElectricityComponent&#45;&gt;DashboardModule -->
<g id="edge10" class="edge">
<title>ElectricityComponent&#45;&gt;DashboardModule</title>
<path fill="none" stroke="#000000" d="M1286.8629,-122.1061C1286.8629,-122.1061 1286.8629,-140.991 1286.8629,-140.991"/>
<polygon fill="#000000" stroke="#000000" points="1283.363,-140.9909 1286.8629,-150.991 1290.363,-140.991 1283.363,-140.9909"/>
</g>
<!-- ElectricityChartComponent -->
<g id="node11" class="node">
<title>ElectricityChartComponent</title>
<polygon fill="#ffffb3" stroke="#000000" points="1150.245,-122 979.755,-122 979.755,-86 1150.245,-86 1150.245,-122"/>
<text text-anchor="middle" x="1065" y="-99.8" font-family="Times,serif" font-size="14.00" fill="#000000">ElectricityChartComponent</text>
</g>
<!-- ElectricityChartComponent&#45;&gt;DashboardModule -->
<g id="edge11" class="edge">
<title>ElectricityChartComponent&#45;&gt;DashboardModule</title>
<path fill="none" stroke="#000000" d="M1065,-122.1243C1065,-136.7832 1065,-155 1065,-155 1065,-155 1255.7936,-155 1255.7936,-155"/>
<polygon fill="#000000" stroke="#000000" points="1255.7936,-158.5001 1265.7936,-155 1255.7936,-151.5001 1255.7936,-158.5001"/>
</g>
<!-- WeatherComponent -->
<g id="node12" class="node">
<title>WeatherComponent</title>
<polygon fill="#ffffb3" stroke="#000000" points="961.2423,-122 832.7577,-122 832.7577,-86 961.2423,-86 961.2423,-122"/>
<text text-anchor="middle" x="897" y="-99.8" font-family="Times,serif" font-size="14.00" fill="#000000">WeatherComponent</text>
</g>
<!-- WeatherComponent&#45;&gt;DashboardModule -->
<g id="edge12" class="edge">
<title>WeatherComponent&#45;&gt;DashboardModule</title>
<path fill="none" stroke="#000000" d="M897,-122.0091C897,-138.0494 897,-159 897,-159 897,-159 1255.8977,-159 1255.8977,-159"/>
<polygon fill="#000000" stroke="#000000" points="1255.8977,-162.5001 1265.8977,-159 1255.8976,-155.5001 1255.8977,-162.5001"/>
</g>
<!-- PlayerComponent -->
<g id="node13" class="node">
<title>PlayerComponent</title>
<polygon fill="#ffffb3" stroke="#000000" points="814.5954,-122 697.4046,-122 697.4046,-86 814.5954,-86 814.5954,-122"/>
<text text-anchor="middle" x="756" y="-99.8" font-family="Times,serif" font-size="14.00" fill="#000000">PlayerComponent</text>
</g>
<!-- PlayerComponent&#45;&gt;DashboardModule -->
<g id="edge13" class="edge">
<title>PlayerComponent&#45;&gt;DashboardModule</title>
<path fill="none" stroke="#000000" d="M756,-122.0225C756,-139.3734 756,-163 756,-163 756,-163 1255.8087,-163 1255.8087,-163"/>
<polygon fill="#000000" stroke="#000000" points="1255.8088,-166.5001 1265.8087,-163 1255.8087,-159.5001 1255.8088,-166.5001"/>
</g>
<!-- SolarComponent -->
<g id="node14" class="node">
<title>SolarComponent</title>
<polygon fill="#ffffb3" stroke="#000000" points="679.3809,-122 568.6191,-122 568.6191,-86 679.3809,-86 679.3809,-122"/>
<text text-anchor="middle" x="624" y="-99.8" font-family="Times,serif" font-size="14.00" fill="#000000">SolarComponent</text>
</g>
<!-- SolarComponent&#45;&gt;DashboardModule -->
<g id="edge14" class="edge">
<title>SolarComponent&#45;&gt;DashboardModule</title>
<path fill="none" stroke="#000000" d="M624,-122.2222C624,-140.8285 624,-167 624,-167 624,-167 1255.8444,-167 1255.8444,-167"/>
<polygon fill="#000000" stroke="#000000" points="1255.8444,-170.5001 1265.8444,-167 1255.8444,-163.5001 1255.8444,-170.5001"/>
</g>
<!-- TrafficComponent -->
<g id="node15" class="node">
<title>TrafficComponent</title>
<polygon fill="#ffffb3" stroke="#000000" points="550.1867,-122 429.8133,-122 429.8133,-86 550.1867,-86 550.1867,-122"/>
<text text-anchor="middle" x="490" y="-99.8" font-family="Times,serif" font-size="14.00" fill="#000000">TrafficComponent</text>
</g>
<!-- TrafficComponent&#45;&gt;DashboardModule -->
<g id="edge15" class="edge">
<title>TrafficComponent&#45;&gt;DashboardModule</title>
<path fill="none" stroke="#000000" d="M490,-122.308C490,-142.1455 490,-171 490,-171 490,-171 1255.8769,-171 1255.8769,-171"/>
<polygon fill="#000000" stroke="#000000" points="1255.877,-174.5001 1265.8769,-171 1255.8769,-167.5001 1255.877,-174.5001"/>
</g>
<!-- TrafficChartComponent -->
<g id="node16" class="node">
<title>TrafficChartComponent</title>
<polygon fill="#ffffb3" stroke="#000000" points="411.7893,-122 260.2107,-122 260.2107,-86 411.7893,-86 411.7893,-122"/>
<text text-anchor="middle" x="336" y="-99.8" font-family="Times,serif" font-size="14.00" fill="#000000">TrafficChartComponent</text>
</g>
<!-- TrafficChartComponent&#45;&gt;DashboardModule -->
<g id="edge16" class="edge">
<title>TrafficChartComponent&#45;&gt;DashboardModule</title>
<path fill="none" stroke="#000000" d="M336,-122.2843C336,-143.3211 336,-175 336,-175 336,-175 1255.5613,-175 1255.5613,-175"/>
<polygon fill="#000000" stroke="#000000" points="1255.5614,-178.5001 1265.5613,-175 1255.5613,-171.5001 1255.5614,-178.5001"/>
</g>
<!-- FormsModule -->
<g id="node18" class="node">
<title>FormsModule</title>
<polygon fill="#8dd3c7" stroke="#000000" points="235.8288,-122 232.8288,-126 211.8288,-126 208.8288,-122 140.1712,-122 140.1712,-86 235.8288,-86 235.8288,-122"/>
<text text-anchor="middle" x="188" y="-99.8" font-family="Times,serif" font-size="14.00" fill="#000000">FormsModule</text>
</g>
<!-- FormsModule&#45;&gt;DashboardModule -->
<g id="edge17" class="edge">
<title>FormsModule&#45;&gt;DashboardModule</title>
<path fill="none" stroke="#000000" d="M188,-122.1554C188,-144.3519 188,-179 188,-179 188,-179 1255.6197,-179 1255.6197,-179"/>
<polygon fill="#000000" stroke="#000000" points="1255.6197,-182.5001 1265.6197,-179 1255.6196,-175.5001 1255.6197,-182.5001"/>
</g>
<!-- ThemeModule -->
<g id="node19" class="node">
<title>ThemeModule</title>
<polygon fill="#8dd3c7" stroke="#000000" points="122.4231,-122 119.4231,-126 98.4231,-126 95.4231,-122 23.5769,-122 23.5769,-86 122.4231,-86 122.4231,-122"/>
<text text-anchor="middle" x="73" y="-99.8" font-family="Times,serif" font-size="14.00" fill="#000000">ThemeModule</text>
</g>
<!-- ThemeModule&#45;&gt;DashboardModule -->
<g id="edge18" class="edge">
<title>ThemeModule&#45;&gt;DashboardModule</title>
<path fill="none" stroke="#000000" d="M73,-122.3228C73,-145.6602 73,-183 73,-183 73,-183 1255.5652,-183 1255.5652,-183"/>
<polygon fill="#000000" stroke="#000000" points="1255.5652,-186.5001 1265.5652,-183 1255.5652,-179.5001 1255.5652,-186.5001"/>
</g>
</g>
</svg>
