<?xml version="1.0" encoding="UTF-8" standalone="no"?>
<!DOCTYPE svg PUBLIC "-//W3C//DTD SVG 1.1//EN"
 "http://www.w3.org/Graphics/SVG/1.1/DTD/svg11.dtd">
<!-- Generated by graphviz version 2.40.1 (20161225.0304)
 -->
<!-- Title: dependencies Pages: 1 -->
<svg width="2066pt" height="211pt"
 viewBox="0.00 0.00 2066.00 211.00" xmlns="http://www.w3.org/2000/svg" xmlns:xlink="http://www.w3.org/1999/xlink">
<g id="graph0" class="graph" transform="scale(1 1) rotate(0) translate(4 207)">
<title>dependencies</title>
<polygon fill="#ffffff" stroke="transparent" points="-4,4 -4,-207 2062,-207 2062,4 -4,4"/>
<text text-anchor="start" x="1008.0091" y="-42.4" font-family="sans-serif" font-weight="bold" font-size="14.00" fill="#000000">Legend</text>
<polygon fill="#ffffb3" stroke="transparent" points="795,-10 795,-30 815,-30 815,-10 795,-10"/>
<text text-anchor="start" x="818.629" y="-15.4" font-family="sans-serif" font-size="14.00" fill="#000000"> &#160;Declarations</text>
<polygon fill="#8dd3c7" stroke="transparent" points="908,-10 908,-30 928,-30 928,-10 908,-10"/>
<text text-anchor="start" x="931.7251" y="-15.4" font-family="sans-serif" font-size="14.00" fill="#000000"> &#160;Module</text>
<polygon fill="#80b1d3" stroke="transparent" points="994,-10 994,-30 1014,-30 1014,-10 994,-10"/>
<text text-anchor="start" x="1017.7812" y="-15.4" font-family="sans-serif" font-size="14.00" fill="#000000"> &#160;Bootstrap</text>
<polygon fill="#fdb462" stroke="transparent" points="1091,-10 1091,-30 1111,-30 1111,-10 1091,-10"/>
<text text-anchor="start" x="1114.6732" y="-15.4" font-family="sans-serif" font-size="14.00" fill="#000000"> &#160;Providers</text>
<polygon fill="#fb8072" stroke="transparent" points="1187,-10 1187,-30 1207,-30 1207,-10 1187,-10"/>
<text text-anchor="start" x="1210.7258" y="-15.4" font-family="sans-serif" font-size="14.00" fill="#000000"> &#160;Exports</text>
<g id="clust1" class="cluster">
<title>cluster_LayoutModule</title>
<polygon fill="none" stroke="#000000" stroke-dasharray="1,5" points="8,-70 8,-195 2050,-195 2050,-70 8,-70"/>
</g>
<g id="clust2" class="cluster">
<title>cluster_LayoutModule_declarations</title>
<polygon fill="none" stroke="#000000" points="562,-78 562,-130 2042,-130 2042,-78 562,-78"/>
</g>
<g id="clust13" class="cluster">
<title>cluster_LayoutModule_imports</title>
<polygon fill="none" stroke="#000000" points="164,-78 164,-130 554,-130 554,-78 164,-78"/>
</g>
<g id="clust16" class="cluster">
<title>cluster_LayoutModule_providers</title>
<polygon fill="none" stroke="#000000" points="16,-78 16,-130 156,-130 156,-78 16,-78"/>
</g>
<!-- LayoutComponent -->
<g id="node1" class="node">
<title>LayoutComponent</title>
<polygon fill="#ffffb3" stroke="#000000" points="2034.4902,-122 1913.5098,-122 1913.5098,-86 2034.4902,-86 2034.4902,-122"/>
<text text-anchor="middle" x="1974" y="-99.8" font-family="Times,serif" font-size="14.00" fill="#000000">LayoutComponent</text>
</g>
<!-- LayoutModule -->
<g id="node11" class="node">
<title>LayoutModule</title>
<polygon fill="#8dd3c7" stroke="#000000" points="1101.7078,-187 1098.7078,-191 1077.7078,-191 1074.7078,-187 1002.2922,-187 1002.2922,-151 1101.7078,-151 1101.7078,-187"/>
<text text-anchor="middle" x="1052" y="-164.8" font-family="Times,serif" font-size="14.00" fill="#000000">LayoutModule</text>
</g>
<!-- LayoutComponent&#45;&gt;LayoutModule -->
<g id="edge1" class="edge">
<title>LayoutComponent&#45;&gt;LayoutModule</title>
<path fill="none" stroke="#000000" d="M1974,-122.0908C1974,-145.1328 1974,-182 1974,-182 1974,-182 1111.8976,-182 1111.8976,-182"/>
<polygon fill="#000000" stroke="#000000" points="1111.8977,-178.5001 1101.8976,-182 1111.8976,-185.5001 1111.8977,-178.5001"/>
</g>
<!-- TabsComponent -->
<g id="node2" class="node">
<title>TabsComponent</title>
<polygon fill="#ffffb3" stroke="#000000" points="1895.0452,-122 1786.9548,-122 1786.9548,-86 1895.0452,-86 1895.0452,-122"/>
<text text-anchor="middle" x="1841" y="-99.8" font-family="Times,serif" font-size="14.00" fill="#000000">TabsComponent</text>
</g>
<!-- TabsComponent&#45;&gt;LayoutModule -->
<g id="edge2" class="edge">
<title>TabsComponent&#45;&gt;LayoutModule</title>
<path fill="none" stroke="#000000" d="M1841,-122.0449C1841,-143.6623 1841,-177 1841,-177 1841,-177 1111.6544,-177 1111.6544,-177"/>
<polygon fill="#000000" stroke="#000000" points="1111.6544,-173.5001 1101.6544,-177 1111.6543,-180.5001 1111.6544,-173.5001"/>
</g>
<!-- Tab1Component -->
<g id="node3" class="node">
<title>Tab1Component</title>
<polygon fill="#ffffb3" stroke="#000000" points="1769.0996,-122 1658.9004,-122 1658.9004,-86 1769.0996,-86 1769.0996,-122"/>
<text text-anchor="middle" x="1714" y="-99.8" font-family="Times,serif" font-size="14.00" fill="#000000">Tab1Component</text>
</g>
<!-- Tab1Component&#45;&gt;LayoutModule -->
<g id="edge3" class="edge">
<title>Tab1Component&#45;&gt;LayoutModule</title>
<path fill="none" stroke="#000000" d="M1714,-122.2228C1714,-142.3652 1714,-172 1714,-172 1714,-172 1111.7576,-172 1111.7576,-172"/>
<polygon fill="#000000" stroke="#000000" points="1111.7576,-168.5001 1101.7576,-172 1111.7576,-175.5001 1111.7576,-168.5001"/>
</g>
<!-- Tab2Component -->
<g id="node4" class="node">
<title>Tab2Component</title>
<polygon fill="#ffffb3" stroke="#000000" points="1641.0996,-122 1530.9004,-122 1530.9004,-86 1641.0996,-86 1641.0996,-122"/>
<text text-anchor="middle" x="1586" y="-99.8" font-family="Times,serif" font-size="14.00" fill="#000000">Tab2Component</text>
</g>
<!-- Tab2Component&#45;&gt;LayoutModule -->
<g id="edge4" class="edge">
<title>Tab2Component&#45;&gt;LayoutModule</title>
<path fill="none" stroke="#000000" d="M1586,-122.2222C1586,-140.8285 1586,-167 1586,-167 1586,-167 1111.7579,-167 1111.7579,-167"/>
<polygon fill="#000000" stroke="#000000" points="1111.7579,-163.5001 1101.7579,-167 1111.7579,-170.5001 1111.7579,-163.5001"/>
</g>
<!-- StepperComponent -->
<g id="node5" class="node">
<title>StepperComponent</title>
<polygon fill="#ffffb3" stroke="#000000" points="1513.0954,-122 1388.9046,-122 1388.9046,-86 1513.0954,-86 1513.0954,-122"/>
<text text-anchor="middle" x="1451" y="-99.8" font-family="Times,serif" font-size="14.00" fill="#000000">StepperComponent</text>
</g>
<!-- StepperComponent&#45;&gt;LayoutModule -->
<g id="edge5" class="edge">
<title>StepperComponent&#45;&gt;LayoutModule</title>
<path fill="none" stroke="#000000" d="M1451,-122.0336C1451,-139.0597 1451,-162 1451,-162 1451,-162 1111.7269,-162 1111.7269,-162"/>
<polygon fill="#000000" stroke="#000000" points="1111.7269,-158.5001 1101.7269,-162 1111.7268,-165.5001 1111.7269,-158.5001"/>
</g>
<!-- ListComponent -->
<g id="node6" class="node">
<title>ListComponent</title>
<polygon fill="#ffffb3" stroke="#000000" points="1370.6109,-122 1267.3891,-122 1267.3891,-86 1370.6109,-86 1370.6109,-122"/>
<text text-anchor="middle" x="1319" y="-99.8" font-family="Times,serif" font-size="14.00" fill="#000000">ListComponent</text>
</g>
<!-- ListComponent&#45;&gt;LayoutModule -->
<g id="edge6" class="edge">
<title>ListComponent&#45;&gt;LayoutModule</title>
<path fill="none" stroke="#000000" d="M1319,-122.2396C1319,-137.5706 1319,-157 1319,-157 1319,-157 1111.9074,-157 1111.9074,-157"/>
<polygon fill="#000000" stroke="#000000" points="1111.9075,-153.5001 1101.9074,-157 1111.9074,-160.5001 1111.9075,-153.5001"/>
</g>
<!-- NewsPostPlaceholderComponent -->
<g id="node7" class="node">
<title>NewsPostPlaceholderComponent</title>
<polygon fill="#ffffb3" stroke="#000000" points="1249.9058,-122 1046.0942,-122 1046.0942,-86 1249.9058,-86 1249.9058,-122"/>
<text text-anchor="middle" x="1148" y="-99.8" font-family="Times,serif" font-size="14.00" fill="#000000">NewsPostPlaceholderComponent</text>
</g>
<!-- NewsPostPlaceholderComponent&#45;&gt;LayoutModule -->
<g id="edge7" class="edge">
<title>NewsPostPlaceholderComponent&#45;&gt;LayoutModule</title>
<path fill="none" stroke="#000000" d="M1073.9506,-122.1061C1073.9506,-122.1061 1073.9506,-140.991 1073.9506,-140.991"/>
<polygon fill="#000000" stroke="#000000" points="1070.4506,-140.9909 1073.9506,-150.991 1077.4506,-140.991 1070.4506,-140.9909"/>
</g>
<!-- InfiniteListComponent -->
<g id="node8" class="node">
<title>InfiniteListComponent</title>
<polygon fill="#ffffb3" stroke="#000000" points="1028.3188,-122 883.6812,-122 883.6812,-86 1028.3188,-86 1028.3188,-122"/>
<text text-anchor="middle" x="956" y="-99.8" font-family="Times,serif" font-size="14.00" fill="#000000">InfiniteListComponent</text>
</g>
<!-- InfiniteListComponent&#45;&gt;LayoutModule -->
<g id="edge8" class="edge">
<title>InfiniteListComponent&#45;&gt;LayoutModule</title>
<path fill="none" stroke="#000000" d="M1015.2777,-122.1061C1015.2777,-122.1061 1015.2777,-140.991 1015.2777,-140.991"/>
<polygon fill="#000000" stroke="#000000" points="1011.7778,-140.9909 1015.2777,-150.991 1018.7778,-140.991 1011.7778,-140.9909"/>
</g>
<!-- NewsPostComponent -->
<g id="node9" class="node">
<title>NewsPostComponent</title>
<polygon fill="#ffffb3" stroke="#000000" points="865.823,-122 728.177,-122 728.177,-86 865.823,-86 865.823,-122"/>
<text text-anchor="middle" x="797" y="-99.8" font-family="Times,serif" font-size="14.00" fill="#000000">NewsPostComponent</text>
</g>
<!-- NewsPostComponent&#45;&gt;LayoutModule -->
<g id="edge9" class="edge">
<title>NewsPostComponent&#45;&gt;LayoutModule</title>
<path fill="none" stroke="#000000" d="M797,-122.2396C797,-137.5706 797,-157 797,-157 797,-157 992.2281,-157 992.2281,-157"/>
<polygon fill="#000000" stroke="#000000" points="992.2281,-160.5001 1002.2281,-157 992.2281,-153.5001 992.2281,-160.5001"/>
</g>
<!-- AccordionComponent -->
<g id="node10" class="node">
<title>AccordionComponent</title>
<polygon fill="#ffffb3" stroke="#000000" points="710.42,-122 569.58,-122 569.58,-86 710.42,-86 710.42,-122"/>
<text text-anchor="middle" x="640" y="-99.8" font-family="Times,serif" font-size="14.00" fill="#000000">AccordionComponent</text>
</g>
<!-- AccordionComponent&#45;&gt;LayoutModule -->
<g id="edge10" class="edge">
<title>AccordionComponent&#45;&gt;LayoutModule</title>
<path fill="none" stroke="#000000" d="M640,-122.0336C640,-139.0597 640,-162 640,-162 640,-162 992.3032,-162 992.3032,-162"/>
<polygon fill="#000000" stroke="#000000" points="992.3032,-165.5001 1002.3032,-162 992.3031,-158.5001 992.3032,-165.5001"/>
</g>
<!-- FormsModule -->
<g id="node12" class="node">
<title>FormsModule</title>
<polygon fill="#8dd3c7" stroke="#000000" points="545.8288,-122 542.8288,-126 521.8288,-126 518.8288,-122 450.1712,-122 450.1712,-86 545.8288,-86 545.8288,-122"/>
<text text-anchor="middle" x="498" y="-99.8" font-family="Times,serif" font-size="14.00" fill="#000000">FormsModule</text>
</g>
<!-- FormsModule&#45;&gt;LayoutModule -->
<g id="edge11" class="edge">
<title>FormsModule&#45;&gt;LayoutModule</title>
<path fill="none" stroke="#000000" d="M498,-122.2222C498,-140.8285 498,-167 498,-167 498,-167 992.3486,-167 992.3486,-167"/>
<polygon fill="#000000" stroke="#000000" points="992.3487,-170.5001 1002.3486,-167 992.3486,-163.5001 992.3487,-170.5001"/>
</g>
<!-- ThemeModule -->
<g id="node13" class="node">
<title>ThemeModule</title>
<polygon fill="#8dd3c7" stroke="#000000" points="432.4231,-122 429.4231,-126 408.4231,-126 405.4231,-122 333.5769,-122 333.5769,-86 432.4231,-86 432.4231,-122"/>
<text text-anchor="middle" x="383" y="-99.8" font-family="Times,serif" font-size="14.00" fill="#000000">ThemeModule</text>
</g>
<!-- ThemeModule&#45;&gt;LayoutModule -->
<g id="edge12" class="edge">
<title>ThemeModule&#45;&gt;LayoutModule</title>
<path fill="none" stroke="#000000" d="M383,-122.2228C383,-142.3652 383,-172 383,-172 383,-172 992.2628,-172 992.2628,-172"/>
<polygon fill="#000000" stroke="#000000" points="992.2629,-175.5001 1002.2628,-172 992.2628,-168.5001 992.2629,-175.5001"/>
</g>
<!-- LayoutRoutingModule -->
<g id="node14" class="node">
<title>LayoutRoutingModule</title>
<polygon fill="#8dd3c7" stroke="#000000" points="316.3258,-122 313.3258,-126 292.3258,-126 289.3258,-122 171.6742,-122 171.6742,-86 316.3258,-86 316.3258,-122"/>
<text text-anchor="middle" x="244" y="-99.8" font-family="Times,serif" font-size="14.00" fill="#000000">LayoutRoutingModule</text>
</g>
<!-- LayoutRoutingModule&#45;&gt;LayoutModule -->
<g id="edge13" class="edge">
<title>LayoutRoutingModule&#45;&gt;LayoutModule</title>
<path fill="none" stroke="#000000" d="M244,-122.0449C244,-143.6623 244,-177 244,-177 244,-177 992.3694,-177 992.3694,-177"/>
<polygon fill="#000000" stroke="#000000" points="992.3695,-180.5001 1002.3694,-177 992.3694,-173.5001 992.3695,-180.5001"/>
</g>
<!-- NewsService -->
<g id="node15" class="node">
<title>NewsService</title>
<ellipse fill="#fdb462" stroke="#000000" cx="86" cy="-104" rx="61.9538" ry="18"/>
<text text-anchor="middle" x="86" y="-99.8" font-family="Times,serif" font-size="14.00" fill="#000000">NewsService</text>
</g>
<!-- NewsService&#45;&gt;LayoutModule -->
<g id="edge14" class="edge">
<title>NewsService&#45;&gt;LayoutModule</title>
<path fill="none" stroke="#000000" d="M86,-122.0908C86,-145.1328 86,-182 86,-182 86,-182 992.0978,-182 992.0978,-182"/>
<polygon fill="#000000" stroke="#000000" points="992.0978,-185.5001 1002.0978,-182 992.0978,-178.5001 992.0978,-185.5001"/>
</g>
</g>
</svg>
