<?xml version="1.0" encoding="UTF-8" standalone="no"?>
<!DOCTYPE svg PUBLIC "-//W3C//DTD SVG 1.1//EN"
 "http://www.w3.org/Graphics/SVG/1.1/DTD/svg11.dtd">
<!-- Generated by graphviz version 2.40.1 (20161225.0304)
 -->
<!-- Title: dependencies Pages: 1 -->
<svg width="1097pt" height="211pt"
 viewBox="0.00 0.00 1097.00 211.00" xmlns="http://www.w3.org/2000/svg" xmlns:xlink="http://www.w3.org/1999/xlink">
<g id="graph0" class="graph" transform="scale(1 1) rotate(0) translate(4 207)">
<title>dependencies</title>
<polygon fill="#ffffff" stroke="transparent" points="-4,4 -4,-207 1093,-207 1093,4 -4,4"/>
<text text-anchor="start" x="523.5091" y="-42.4" font-family="sans-serif" font-weight="bold" font-size="14.00" fill="#000000">Legend</text>
<polygon fill="#ffffb3" stroke="transparent" points="310.5,-10 310.5,-30 330.5,-30 330.5,-10 310.5,-10"/>
<text text-anchor="start" x="334.129" y="-15.4" font-family="sans-serif" font-size="14.00" fill="#000000"> &#160;Declarations</text>
<polygon fill="#8dd3c7" stroke="transparent" points="423.5,-10 423.5,-30 443.5,-30 443.5,-10 423.5,-10"/>
<text text-anchor="start" x="447.2251" y="-15.4" font-family="sans-serif" font-size="14.00" fill="#000000"> &#160;Module</text>
<polygon fill="#80b1d3" stroke="transparent" points="509.5,-10 509.5,-30 529.5,-30 529.5,-10 509.5,-10"/>
<text text-anchor="start" x="533.2812" y="-15.4" font-family="sans-serif" font-size="14.00" fill="#000000"> &#160;Bootstrap</text>
<polygon fill="#fdb462" stroke="transparent" points="606.5,-10 606.5,-30 626.5,-30 626.5,-10 606.5,-10"/>
<text text-anchor="start" x="630.1732" y="-15.4" font-family="sans-serif" font-size="14.00" fill="#000000"> &#160;Providers</text>
<polygon fill="#fb8072" stroke="transparent" points="702.5,-10 702.5,-30 722.5,-30 722.5,-10 702.5,-10"/>
<text text-anchor="start" x="726.2258" y="-15.4" font-family="sans-serif" font-size="14.00" fill="#000000"> &#160;Exports</text>
<g id="clust1" class="cluster">
<title>cluster_FormsModule</title>
<polygon fill="none" stroke="#000000" stroke-dasharray="1,5" points="8,-70 8,-195 1081,-195 1081,-70 8,-70"/>
</g>
<g id="clust2" class="cluster">
<title>cluster_FormsModule_declarations</title>
<polygon fill="none" stroke="#000000" points="296,-78 296,-130 1073,-130 1073,-78 296,-78"/>
</g>
<g id="clust8" class="cluster">
<title>cluster_FormsModule_imports</title>
<polygon fill="none" stroke="#000000" points="16,-78 16,-130 288,-130 288,-78 16,-78"/>
</g>
<!-- FormsComponent -->
<g id="node1" class="node">
<title>FormsComponent</title>
<polygon fill="#ffffb3" stroke="#000000" points="1064.6109,-122 947.3891,-122 947.3891,-86 1064.6109,-86 1064.6109,-122"/>
<text text-anchor="middle" x="1006" y="-99.8" font-family="Times,serif" font-size="14.00" fill="#000000">FormsComponent</text>
</g>
<!-- FormsModule -->
<g id="node6" class="node">
<title>FormsModule</title>
<polygon fill="#8dd3c7" stroke="#000000" points="590.8288,-187 587.8288,-191 566.8288,-191 563.8288,-187 495.1712,-187 495.1712,-151 590.8288,-151 590.8288,-187"/>
<text text-anchor="middle" x="543" y="-164.8" font-family="Times,serif" font-size="14.00" fill="#000000">FormsModule</text>
</g>
<!-- FormsComponent&#45;&gt;FormsModule -->
<g id="edge1" class="edge">
<title>FormsComponent&#45;&gt;FormsModule</title>
<path fill="none" stroke="#000000" d="M1006,-122.2921C1006,-144.2057 1006,-178 1006,-178 1006,-178 600.8053,-178 600.8053,-178"/>
<polygon fill="#000000" stroke="#000000" points="600.8053,-174.5001 590.8053,-178 600.8052,-181.5001 600.8053,-174.5001"/>
</g>
<!-- ButtonsComponent -->
<g id="node2" class="node">
<title>ButtonsComponent</title>
<polygon fill="#ffffb3" stroke="#000000" points="929.3948,-122 804.6052,-122 804.6052,-86 929.3948,-86 929.3948,-122"/>
<text text-anchor="middle" x="867" y="-99.8" font-family="Times,serif" font-size="14.00" fill="#000000">ButtonsComponent</text>
</g>
<!-- ButtonsComponent&#45;&gt;FormsModule -->
<g id="edge2" class="edge">
<title>ButtonsComponent&#45;&gt;FormsModule</title>
<path fill="none" stroke="#000000" d="M867,-122.1061C867,-141.3391 867,-169 867,-169 867,-169 600.8073,-169 600.8073,-169"/>
<polygon fill="#000000" stroke="#000000" points="600.8074,-165.5001 590.8073,-169 600.8073,-172.5001 600.8074,-165.5001"/>
</g>
<!-- FormInputsComponent -->
<g id="node3" class="node">
<title>FormInputsComponent</title>
<polygon fill="#ffffb3" stroke="#000000" points="786.1624,-122 639.8376,-122 639.8376,-86 786.1624,-86 786.1624,-122"/>
<text text-anchor="middle" x="713" y="-99.8" font-family="Times,serif" font-size="14.00" fill="#000000">FormInputsComponent</text>
</g>
<!-- FormInputsComponent&#45;&gt;FormsModule -->
<g id="edge3" class="edge">
<title>FormInputsComponent&#45;&gt;FormsModule</title>
<path fill="none" stroke="#000000" d="M713,-122.027C713,-138.3976 713,-160 713,-160 713,-160 600.8069,-160 600.8069,-160"/>
<polygon fill="#000000" stroke="#000000" points="600.8069,-156.5001 590.8069,-160 600.8068,-163.5001 600.8069,-156.5001"/>
</g>
<!-- FormLayoutsComponent -->
<g id="node4" class="node">
<title>FormLayoutsComponent</title>
<polygon fill="#ffffb3" stroke="#000000" points="621.2688,-122 464.7312,-122 464.7312,-86 621.2688,-86 621.2688,-122"/>
<text text-anchor="middle" x="543" y="-99.8" font-family="Times,serif" font-size="14.00" fill="#000000">FormLayoutsComponent</text>
</g>
<!-- FormLayoutsComponent&#45;&gt;FormsModule -->
<g id="edge4" class="edge">
<title>FormLayoutsComponent&#45;&gt;FormsModule</title>
<path fill="none" stroke="#000000" d="M543,-122.1061C543,-122.1061 543,-140.991 543,-140.991"/>
<polygon fill="#000000" stroke="#000000" points="539.5001,-140.9909 543,-150.991 546.5001,-140.991 539.5001,-140.9909"/>
</g>
<!-- DatepickerComponent -->
<g id="node5" class="node">
<title>DatepickerComponent</title>
<polygon fill="#ffffb3" stroke="#000000" points="446.2394,-122 303.7606,-122 303.7606,-86 446.2394,-86 446.2394,-122"/>
<text text-anchor="middle" x="375" y="-99.8" font-family="Times,serif" font-size="14.00" fill="#000000">DatepickerComponent</text>
</g>
<!-- DatepickerComponent&#45;&gt;FormsModule -->
<g id="edge5" class="edge">
<title>DatepickerComponent&#45;&gt;FormsModule</title>
<path fill="none" stroke="#000000" d="M375,-122.027C375,-138.3976 375,-160 375,-160 375,-160 485.3073,-160 485.3073,-160"/>
<polygon fill="#000000" stroke="#000000" points="485.3074,-163.5001 495.3073,-160 485.3073,-156.5001 485.3074,-163.5001"/>
</g>
<!-- ThemeModule -->
<g id="node7" class="node">
<title>ThemeModule</title>
<polygon fill="#8dd3c7" stroke="#000000" points="280.4231,-122 277.4231,-126 256.4231,-126 253.4231,-122 181.5769,-122 181.5769,-86 280.4231,-86 280.4231,-122"/>
<text text-anchor="middle" x="231" y="-99.8" font-family="Times,serif" font-size="14.00" fill="#000000">ThemeModule</text>
</g>
<!-- ThemeModule&#45;&gt;FormsModule -->
<g id="edge6" class="edge">
<title>ThemeModule&#45;&gt;FormsModule</title>
<path fill="none" stroke="#000000" d="M231,-122.1061C231,-141.3391 231,-169 231,-169 231,-169 485.2743,-169 485.2743,-169"/>
<polygon fill="#000000" stroke="#000000" points="485.2743,-172.5001 495.2743,-169 485.2743,-165.5001 485.2743,-172.5001"/>
</g>
<!-- FormsRoutingModule -->
<g id="node8" class="node">
<title>FormsRoutingModule</title>
<polygon fill="#8dd3c7" stroke="#000000" points="164.4467,-122 161.4467,-126 140.4467,-126 137.4467,-122 23.5533,-122 23.5533,-86 164.4467,-86 164.4467,-122"/>
<text text-anchor="middle" x="94" y="-99.8" font-family="Times,serif" font-size="14.00" fill="#000000">FormsRoutingModule</text>
</g>
<!-- FormsRoutingModule&#45;&gt;FormsModule -->
<g id="edge7" class="edge">
<title>FormsRoutingModule&#45;&gt;FormsModule</title>
<path fill="none" stroke="#000000" d="M94,-122.2921C94,-144.2057 94,-178 94,-178 94,-178 484.9491,-178 484.9491,-178"/>
<polygon fill="#000000" stroke="#000000" points="484.9492,-181.5001 494.9491,-178 484.9491,-174.5001 484.9492,-181.5001"/>
</g>
</g>
</svg>
