<?xml version="1.0" encoding="UTF-8" standalone="no"?>
<!DOCTYPE svg PUBLIC "-//W3C//DTD SVG 1.1//EN"
 "http://www.w3.org/Graphics/SVG/1.1/DTD/svg11.dtd">
<!-- Generated by graphviz version 2.40.1 (20161225.0304)
 -->
<!-- Title: dependencies Pages: 1 -->
<svg width="700pt" height="211pt"
 viewBox="0.00 0.00 700.00 211.00" xmlns="http://www.w3.org/2000/svg" xmlns:xlink="http://www.w3.org/1999/xlink">
<g id="graph0" class="graph" transform="scale(1 1) rotate(0) translate(4 207)">
<title>dependencies</title>
<polygon fill="#ffffff" stroke="transparent" points="-4,4 -4,-207 696,-207 696,4 -4,4"/>
<text text-anchor="start" x="325.0091" y="-42.4" font-family="sans-serif" font-weight="bold" font-size="14.00" fill="#000000">Legend</text>
<polygon fill="#ffffb3" stroke="transparent" points="112,-10 112,-30 132,-30 132,-10 112,-10"/>
<text text-anchor="start" x="135.629" y="-15.4" font-family="sans-serif" font-size="14.00" fill="#000000"> &#160;Declarations</text>
<polygon fill="#8dd3c7" stroke="transparent" points="225,-10 225,-30 245,-30 245,-10 225,-10"/>
<text text-anchor="start" x="248.7251" y="-15.4" font-family="sans-serif" font-size="14.00" fill="#000000"> &#160;Module</text>
<polygon fill="#80b1d3" stroke="transparent" points="311,-10 311,-30 331,-30 331,-10 311,-10"/>
<text text-anchor="start" x="334.7812" y="-15.4" font-family="sans-serif" font-size="14.00" fill="#000000"> &#160;Bootstrap</text>
<polygon fill="#fdb462" stroke="transparent" points="408,-10 408,-30 428,-30 428,-10 408,-10"/>
<text text-anchor="start" x="431.6732" y="-15.4" font-family="sans-serif" font-size="14.00" fill="#000000"> &#160;Providers</text>
<polygon fill="#fb8072" stroke="transparent" points="504,-10 504,-30 524,-30 524,-10 504,-10"/>
<text text-anchor="start" x="527.7258" y="-15.4" font-family="sans-serif" font-size="14.00" fill="#000000"> &#160;Exports</text>
<g id="clust1" class="cluster">
<title>cluster_MiscellaneousModule</title>
<polygon fill="none" stroke="#000000" stroke-dasharray="1,5" points="8,-70 8,-195 684,-195 684,-70 8,-70"/>
</g>
<g id="clust2" class="cluster">
<title>cluster_MiscellaneousModule_declarations</title>
<polygon fill="none" stroke="#000000" points="342,-78 342,-130 676,-130 676,-78 342,-78"/>
</g>
<g id="clust5" class="cluster">
<title>cluster_MiscellaneousModule_imports</title>
<polygon fill="none" stroke="#000000" points="16,-78 16,-130 334,-130 334,-78 16,-78"/>
</g>
<!-- MiscellaneousComponent -->
<g id="node1" class="node">
<title>MiscellaneousComponent</title>
<polygon fill="#ffffb3" stroke="#000000" points="668.1965,-122 505.8035,-122 505.8035,-86 668.1965,-86 668.1965,-122"/>
<text text-anchor="middle" x="587" y="-99.8" font-family="Times,serif" font-size="14.00" fill="#000000">MiscellaneousComponent</text>
</g>
<!-- MiscellaneousModule -->
<g id="node3" class="node">
<title>MiscellaneousModule</title>
<polygon fill="#8dd3c7" stroke="#000000" points="418.4144,-187 415.4144,-191 394.4144,-191 391.4144,-187 277.5856,-187 277.5856,-151 418.4144,-151 418.4144,-187"/>
<text text-anchor="middle" x="348" y="-164.8" font-family="Times,serif" font-size="14.00" fill="#000000">MiscellaneousModule</text>
</g>
<!-- MiscellaneousComponent&#45;&gt;MiscellaneousModule -->
<g id="edge1" class="edge">
<title>MiscellaneousComponent&#45;&gt;MiscellaneousModule</title>
<path fill="none" stroke="#000000" d="M587,-122.1061C587,-141.3391 587,-169 587,-169 587,-169 428.4152,-169 428.4152,-169"/>
<polygon fill="#000000" stroke="#000000" points="428.4152,-165.5001 418.4152,-169 428.4152,-172.5001 428.4152,-165.5001"/>
</g>
<!-- NotFoundComponent -->
<g id="node2" class="node">
<title>NotFoundComponent</title>
<polygon fill="#ffffb3" stroke="#000000" points="488.1122,-122 349.8878,-122 349.8878,-86 488.1122,-86 488.1122,-122"/>
<text text-anchor="middle" x="419" y="-99.8" font-family="Times,serif" font-size="14.00" fill="#000000">NotFoundComponent</text>
</g>
<!-- NotFoundComponent&#45;&gt;MiscellaneousModule -->
<g id="edge2" class="edge">
<title>NotFoundComponent&#45;&gt;MiscellaneousModule</title>
<path fill="none" stroke="#000000" d="M384.0754,-122.1061C384.0754,-122.1061 384.0754,-140.991 384.0754,-140.991"/>
<polygon fill="#000000" stroke="#000000" points="380.5755,-140.9909 384.0754,-150.991 387.5755,-140.991 380.5755,-140.9909"/>
</g>
<!-- ThemeModule -->
<g id="node4" class="node">
<title>ThemeModule</title>
<polygon fill="#8dd3c7" stroke="#000000" points="326.4231,-122 323.4231,-126 302.4231,-126 299.4231,-122 227.5769,-122 227.5769,-86 326.4231,-86 326.4231,-122"/>
<text text-anchor="middle" x="277" y="-99.8" font-family="Times,serif" font-size="14.00" fill="#000000">ThemeModule</text>
</g>
<!-- ThemeModule&#45;&gt;MiscellaneousModule -->
<g id="edge3" class="edge">
<title>ThemeModule&#45;&gt;MiscellaneousModule</title>
<path fill="none" stroke="#000000" d="M302.0021,-122.1061C302.0021,-122.1061 302.0021,-140.991 302.0021,-140.991"/>
<polygon fill="#000000" stroke="#000000" points="298.5022,-140.9909 302.0021,-150.991 305.5022,-140.991 298.5022,-140.9909"/>
</g>
<!-- MiscellaneousRoutingModule -->
<g id="node5" class="node">
<title>MiscellaneousRoutingModule</title>
<polygon fill="#8dd3c7" stroke="#000000" points="209.5322,-122 206.5322,-126 185.5322,-126 182.5322,-122 24.4678,-122 24.4678,-86 209.5322,-86 209.5322,-122"/>
<text text-anchor="middle" x="117" y="-99.8" font-family="Times,serif" font-size="14.00" fill="#000000">MiscellaneousRoutingModule</text>
</g>
<!-- MiscellaneousRoutingModule&#45;&gt;MiscellaneousModule -->
<g id="edge4" class="edge">
<title>MiscellaneousRoutingModule&#45;&gt;MiscellaneousModule</title>
<path fill="none" stroke="#000000" d="M117,-122.1061C117,-141.3391 117,-169 117,-169 117,-169 267.7515,-169 267.7515,-169"/>
<polygon fill="#000000" stroke="#000000" points="267.7516,-172.5001 277.7515,-169 267.7515,-165.5001 267.7516,-172.5001"/>
</g>
</g>
</svg>
