<?xml version="1.0" encoding="UTF-8" standalone="no"?>
<!DOCTYPE svg PUBLIC "-//W3C//DTD SVG 1.1//EN"
 "http://www.w3.org/Graphics/SVG/1.1/DTD/svg11.dtd">
<!-- Generated by graphviz version 2.40.1 (20161225.0304)
 -->
<!-- Title: dependencies Pages: 1 -->
<svg width="7118pt" height="211pt"
 viewBox="0.00 0.00 7118.00 211.00" xmlns="http://www.w3.org/2000/svg" xmlns:xlink="http://www.w3.org/1999/xlink">
<g id="graph0" class="graph" transform="scale(1 1) rotate(0) translate(4 207)">
<title>dependencies</title>
<polygon fill="#ffffff" stroke="transparent" points="-4,4 -4,-207 7114,-207 7114,4 -4,4"/>
<text text-anchor="start" x="3534.0091" y="-42.4" font-family="sans-serif" font-weight="bold" font-size="14.00" fill="#000000">Legend</text>
<polygon fill="#ffffb3" stroke="transparent" points="3321,-10 3321,-30 3341,-30 3341,-10 3321,-10"/>
<text text-anchor="start" x="3344.629" y="-15.4" font-family="sans-serif" font-size="14.00" fill="#000000"> &#160;Declarations</text>
<polygon fill="#8dd3c7" stroke="transparent" points="3434,-10 3434,-30 3454,-30 3454,-10 3434,-10"/>
<text text-anchor="start" x="3457.7251" y="-15.4" font-family="sans-serif" font-size="14.00" fill="#000000"> &#160;Module</text>
<polygon fill="#80b1d3" stroke="transparent" points="3520,-10 3520,-30 3540,-30 3540,-10 3520,-10"/>
<text text-anchor="start" x="3543.7812" y="-15.4" font-family="sans-serif" font-size="14.00" fill="#000000"> &#160;Bootstrap</text>
<polygon fill="#fdb462" stroke="transparent" points="3617,-10 3617,-30 3637,-30 3637,-10 3617,-10"/>
<text text-anchor="start" x="3640.6732" y="-15.4" font-family="sans-serif" font-size="14.00" fill="#000000"> &#160;Providers</text>
<polygon fill="#fb8072" stroke="transparent" points="3713,-10 3713,-30 3733,-30 3733,-10 3713,-10"/>
<text text-anchor="start" x="3736.7258" y="-15.4" font-family="sans-serif" font-size="14.00" fill="#000000"> &#160;Exports</text>
<g id="clust1" class="cluster">
<title>cluster_ECommerceModule</title>
<polygon fill="none" stroke="#000000" stroke-dasharray="1,5" points="8,-70 8,-195 7102,-195 7102,-70 8,-70"/>
</g>
<g id="clust2" class="cluster">
<title>cluster_ECommerceModule_declarations</title>
<polygon fill="none" stroke="#000000" points="508,-78 508,-130 7094,-130 7094,-78 508,-78"/>
</g>
<g id="clust35" class="cluster">
<title>cluster_ECommerceModule_imports</title>
<polygon fill="none" stroke="#000000" points="272,-78 272,-130 500,-130 500,-78 272,-78"/>
</g>
<g id="clust38" class="cluster">
<title>cluster_ECommerceModule_providers</title>
<polygon fill="none" stroke="#000000" points="16,-78 16,-130 264,-130 264,-78 16,-78"/>
</g>
<!-- ECommerceComponent -->
<g id="node1" class="node">
<title>ECommerceComponent</title>
<polygon fill="#ffffb3" stroke="#000000" points="7085.8075,-122 6934.1925,-122 6934.1925,-86 7085.8075,-86 7085.8075,-122"/>
<text text-anchor="middle" x="7010" y="-99.8" font-family="Times,serif" font-size="14.00" fill="#000000">ECommerceComponent</text>
</g>
<!-- ECommerceModule -->
<g id="node33" class="node">
<title>ECommerceModule</title>
<polygon fill="#8dd3c7" stroke="#000000" points="3813.5255,-187 3810.5255,-191 3789.5255,-191 3786.5255,-187 3684.4745,-187 3684.4745,-151 3813.5255,-151 3813.5255,-187"/>
<text text-anchor="middle" x="3749" y="-164.8" font-family="Times,serif" font-size="14.00" fill="#000000">ECommerceModule</text>
</g>
<!-- ECommerceComponent&#45;&gt;ECommerceModule -->
<g id="edge1" class="edge">
<title>ECommerceComponent&#45;&gt;ECommerceModule</title>
<path fill="none" stroke="#000000" d="M7010,-122.3802C7010,-146.2785 7010,-185 7010,-185 7010,-185 3823.7727,-185 3823.7727,-185"/>
<polygon fill="#000000" stroke="#000000" points="3823.7727,-181.5001 3813.7727,-185 3823.7727,-188.5001 3823.7727,-181.5001"/>
</g>
<!-- StatsCardFrontComponent -->
<g id="node2" class="node">
<title>StatsCardFrontComponent</title>
<polygon fill="#ffffb3" stroke="#000000" points="6916.101,-122 6749.899,-122 6749.899,-86 6916.101,-86 6916.101,-122"/>
<text text-anchor="middle" x="6833" y="-99.8" font-family="Times,serif" font-size="14.00" fill="#000000">StatsCardFrontComponent</text>
</g>
<!-- StatsCardFrontComponent&#45;&gt;ECommerceModule -->
<g id="edge2" class="edge">
<title>StatsCardFrontComponent&#45;&gt;ECommerceModule</title>
<path fill="none" stroke="#000000" d="M6833,-122.3228C6833,-145.6602 6833,-183 6833,-183 6833,-183 3823.769,-183 3823.769,-183"/>
<polygon fill="#000000" stroke="#000000" points="3823.7691,-179.5001 3813.769,-183 3823.769,-186.5001 3823.7691,-179.5001"/>
</g>
<!-- StatsAreaChartComponent -->
<g id="node3" class="node">
<title>StatsAreaChartComponent</title>
<polygon fill="#ffffb3" stroke="#000000" points="6732.3543,-122 6565.6457,-122 6565.6457,-86 6732.3543,-86 6732.3543,-122"/>
<text text-anchor="middle" x="6649" y="-99.8" font-family="Times,serif" font-size="14.00" fill="#000000">StatsAreaChartComponent</text>
</g>
<!-- StatsAreaChartComponent&#45;&gt;ECommerceModule -->
<g id="edge3" class="edge">
<title>StatsAreaChartComponent&#45;&gt;ECommerceModule</title>
<path fill="none" stroke="#000000" d="M6649,-122.0908C6649,-145.1328 6649,-182 6649,-182 6649,-182 3823.6366,-182 3823.6366,-182"/>
<polygon fill="#000000" stroke="#000000" points="3823.6367,-178.5001 3813.6366,-182 3823.6366,-185.5001 3823.6367,-178.5001"/>
</g>
<!-- StatsBarAnimationChartComponent -->
<g id="node4" class="node">
<title>StatsBarAnimationChartComponent</title>
<polygon fill="#ffffb3" stroke="#000000" points="6547.7533,-122 6328.2467,-122 6328.2467,-86 6547.7533,-86 6547.7533,-122"/>
<text text-anchor="middle" x="6438" y="-99.8" font-family="Times,serif" font-size="14.00" fill="#000000">StatsBarAnimationChartComponent</text>
</g>
<!-- StatsBarAnimationChartComponent&#45;&gt;ECommerceModule -->
<g id="edge4" class="edge">
<title>StatsBarAnimationChartComponent&#45;&gt;ECommerceModule</title>
<path fill="none" stroke="#000000" d="M6438,-122.1554C6438,-144.3519 6438,-179 6438,-179 6438,-179 3823.8065,-179 3823.8065,-179"/>
<polygon fill="#000000" stroke="#000000" points="3823.8066,-175.5001 3813.8065,-179 3823.8065,-182.5001 3823.8066,-175.5001"/>
</g>
<!-- ProfitCardComponent -->
<g id="node5" class="node">
<title>ProfitCardComponent</title>
<polygon fill="#ffffb3" stroke="#000000" points="6310.4299,-122 6169.5701,-122 6169.5701,-86 6310.4299,-86 6310.4299,-122"/>
<text text-anchor="middle" x="6240" y="-99.8" font-family="Times,serif" font-size="14.00" fill="#000000">ProfitCardComponent</text>
</g>
<!-- ProfitCardComponent&#45;&gt;ECommerceModule -->
<g id="edge5" class="edge">
<title>ProfitCardComponent&#45;&gt;ECommerceModule</title>
<path fill="none" stroke="#000000" d="M6240,-122.0449C6240,-143.6623 6240,-177 6240,-177 6240,-177 3823.7119,-177 3823.7119,-177"/>
<polygon fill="#000000" stroke="#000000" points="3823.7119,-173.5001 3813.7119,-177 3823.7119,-180.5001 3823.7119,-173.5001"/>
</g>
<!-- ECommerceChartsPanelComponent -->
<g id="node6" class="node">
<title>ECommerceChartsPanelComponent</title>
<polygon fill="#ffffb3" stroke="#000000" points="6151.4566,-122 5932.5434,-122 5932.5434,-86 6151.4566,-86 6151.4566,-122"/>
<text text-anchor="middle" x="6042" y="-99.8" font-family="Times,serif" font-size="14.00" fill="#000000">ECommerceChartsPanelComponent</text>
</g>
<!-- ECommerceChartsPanelComponent&#45;&gt;ECommerceModule -->
<g id="edge6" class="edge">
<title>ECommerceChartsPanelComponent&#45;&gt;ECommerceModule</title>
<path fill="none" stroke="#000000" d="M6042,-122.2843C6042,-143.3211 6042,-175 6042,-175 6042,-175 3823.6279,-175 3823.6279,-175"/>
<polygon fill="#000000" stroke="#000000" points="3823.6279,-171.5001 3813.6279,-175 3823.6278,-178.5001 3823.6279,-171.5001"/>
</g>
<!-- ChartPanelHeaderComponent -->
<g id="node7" class="node">
<title>ChartPanelHeaderComponent</title>
<polygon fill="#ffffb3" stroke="#000000" points="5914.9482,-122 5731.0518,-122 5731.0518,-86 5914.9482,-86 5914.9482,-122"/>
<text text-anchor="middle" x="5823" y="-99.8" font-family="Times,serif" font-size="14.00" fill="#000000">ChartPanelHeaderComponent</text>
</g>
<!-- ChartPanelHeaderComponent&#45;&gt;ECommerceModule -->
<g id="edge7" class="edge">
<title>ChartPanelHeaderComponent&#45;&gt;ECommerceModule</title>
<path fill="none" stroke="#000000" d="M5823,-122.1289C5823,-142.5724 5823,-173 5823,-173 5823,-173 3823.6319,-173 3823.6319,-173"/>
<polygon fill="#000000" stroke="#000000" points="3823.6319,-169.5001 3813.6319,-173 3823.6319,-176.5001 3823.6319,-169.5001"/>
</g>
<!-- ChartPanelSummaryComponent -->
<g id="node8" class="node">
<title>ChartPanelSummaryComponent</title>
<polygon fill="#ffffb3" stroke="#000000" points="5712.9762,-122 5515.0238,-122 5515.0238,-86 5712.9762,-86 5712.9762,-122"/>
<text text-anchor="middle" x="5614" y="-99.8" font-family="Times,serif" font-size="14.00" fill="#000000">ChartPanelSummaryComponent</text>
</g>
<!-- ChartPanelSummaryComponent&#45;&gt;ECommerceModule -->
<g id="edge8" class="edge">
<title>ChartPanelSummaryComponent&#45;&gt;ECommerceModule</title>
<path fill="none" stroke="#000000" d="M5614,-122.308C5614,-142.1455 5614,-171 5614,-171 5614,-171 3823.7391,-171 3823.7391,-171"/>
<polygon fill="#000000" stroke="#000000" points="3823.7392,-167.5001 3813.7391,-171 3823.7391,-174.5001 3823.7392,-167.5001"/>
</g>
<!-- OrdersChartComponent -->
<g id="node9" class="node">
<title>OrdersChartComponent</title>
<polygon fill="#ffffb3" stroke="#000000" points="5497.0226,-122 5346.9774,-122 5346.9774,-86 5497.0226,-86 5497.0226,-122"/>
<text text-anchor="middle" x="5422" y="-99.8" font-family="Times,serif" font-size="14.00" fill="#000000">OrdersChartComponent</text>
</g>
<!-- OrdersChartComponent&#45;&gt;ECommerceModule -->
<g id="edge9" class="edge">
<title>OrdersChartComponent&#45;&gt;ECommerceModule</title>
<path fill="none" stroke="#000000" d="M5422,-122.1061C5422,-141.3391 5422,-169 5422,-169 5422,-169 3823.5585,-169 3823.5585,-169"/>
<polygon fill="#000000" stroke="#000000" points="3823.5585,-165.5001 3813.5585,-169 3823.5584,-172.5001 3823.5585,-165.5001"/>
</g>
<!-- ProfitChartComponent -->
<g id="node10" class="node">
<title>ProfitChartComponent</title>
<polygon fill="#ffffb3" stroke="#000000" points="5329.3202,-122 5184.6798,-122 5184.6798,-86 5329.3202,-86 5329.3202,-122"/>
<text text-anchor="middle" x="5257" y="-99.8" font-family="Times,serif" font-size="14.00" fill="#000000">ProfitChartComponent</text>
</g>
<!-- ProfitChartComponent&#45;&gt;ECommerceModule -->
<g id="edge10" class="edge">
<title>ProfitChartComponent&#45;&gt;ECommerceModule</title>
<path fill="none" stroke="#000000" d="M5257,-122.2222C5257,-140.8285 5257,-167 5257,-167 5257,-167 3823.7969,-167 3823.7969,-167"/>
<polygon fill="#000000" stroke="#000000" points="3823.7969,-163.5001 3813.7969,-167 3823.7968,-170.5001 3823.7969,-163.5001"/>
</g>
<!-- StatsCardBackComponent -->
<g id="node11" class="node">
<title>StatsCardBackComponent</title>
<polygon fill="#ffffb3" stroke="#000000" points="5167.0337,-122 5002.9663,-122 5002.9663,-86 5167.0337,-86 5167.0337,-122"/>
<text text-anchor="middle" x="5085" y="-99.8" font-family="Times,serif" font-size="14.00" fill="#000000">StatsCardBackComponent</text>
</g>
<!-- StatsCardBackComponent&#45;&gt;ECommerceModule -->
<g id="edge11" class="edge">
<title>StatsCardBackComponent&#45;&gt;ECommerceModule</title>
<path fill="none" stroke="#000000" d="M5085,-122.302C5085,-140.2699 5085,-165 5085,-165 5085,-165 3823.8896,-165 3823.8896,-165"/>
<polygon fill="#000000" stroke="#000000" points="3823.8896,-161.5001 3813.8896,-165 3823.8895,-168.5001 3823.8896,-161.5001"/>
</g>
<!-- TrafficRevealCardComponent -->
<g id="node12" class="node">
<title>TrafficRevealCardComponent</title>
<polygon fill="#ffffb3" stroke="#000000" points="4985.2696,-122 4798.7304,-122 4798.7304,-86 4985.2696,-86 4985.2696,-122"/>
<text text-anchor="middle" x="4892" y="-99.8" font-family="Times,serif" font-size="14.00" fill="#000000">TrafficRevealCardComponent</text>
</g>
<!-- TrafficRevealCardComponent&#45;&gt;ECommerceModule -->
<g id="edge12" class="edge">
<title>TrafficRevealCardComponent&#45;&gt;ECommerceModule</title>
<path fill="none" stroke="#000000" d="M4892,-122.0225C4892,-139.3734 4892,-163 4892,-163 4892,-163 3823.7276,-163 3823.7276,-163"/>
<polygon fill="#000000" stroke="#000000" points="3823.7276,-159.5001 3813.7276,-163 3823.7275,-166.5001 3823.7276,-159.5001"/>
</g>
<!-- TrafficBarChartComponent -->
<g id="node13" class="node">
<title>TrafficBarChartComponent</title>
<polygon fill="#ffffb3" stroke="#000000" points="4780.5015,-122 4609.4985,-122 4609.4985,-86 4780.5015,-86 4780.5015,-122"/>
<text text-anchor="middle" x="4695" y="-99.8" font-family="Times,serif" font-size="14.00" fill="#000000">TrafficBarChartComponent</text>
</g>
<!-- TrafficBarChartComponent&#45;&gt;ECommerceModule -->
<g id="edge13" class="edge">
<title>TrafficBarChartComponent&#45;&gt;ECommerceModule</title>
<path fill="none" stroke="#000000" d="M4695,-122.0352C4695,-138.7344 4695,-161 4695,-161 4695,-161 3823.6501,-161 3823.6501,-161"/>
<polygon fill="#000000" stroke="#000000" points="3823.6501,-157.5001 3813.6501,-161 3823.6501,-164.5001 3823.6501,-157.5001"/>
</g>
<!-- TrafficFrontCardComponent -->
<g id="node14" class="node">
<title>TrafficFrontCardComponent</title>
<polygon fill="#ffffb3" stroke="#000000" points="4590.7324,-122 4413.2676,-122 4413.2676,-86 4590.7324,-86 4590.7324,-122"/>
<text text-anchor="middle" x="4502" y="-99.8" font-family="Times,serif" font-size="14.00" fill="#000000">TrafficFrontCardComponent</text>
</g>
<!-- TrafficFrontCardComponent&#45;&gt;ECommerceModule -->
<g id="edge14" class="edge">
<title>TrafficFrontCardComponent&#45;&gt;ECommerceModule</title>
<path fill="none" stroke="#000000" d="M4502,-122.0091C4502,-138.0494 4502,-159 4502,-159 4502,-159 3823.5259,-159 3823.5259,-159"/>
<polygon fill="#000000" stroke="#000000" points="3823.5259,-155.5001 3813.5259,-159 3823.5258,-162.5001 3823.5259,-155.5001"/>
</g>
<!-- TrafficBackCardComponent -->
<g id="node15" class="node">
<title>TrafficBackCardComponent</title>
<polygon fill="#ffffb3" stroke="#000000" points="4395.1643,-122 4218.8357,-122 4218.8357,-86 4395.1643,-86 4395.1643,-122"/>
<text text-anchor="middle" x="4307" y="-99.8" font-family="Times,serif" font-size="14.00" fill="#000000">TrafficBackCardComponent</text>
</g>
<!-- TrafficBackCardComponent&#45;&gt;ECommerceModule -->
<g id="edge15" class="edge">
<title>TrafficBackCardComponent&#45;&gt;ECommerceModule</title>
<path fill="none" stroke="#000000" d="M4307,-122.2396C4307,-137.5706 4307,-157 4307,-157 4307,-157 3823.5548,-157 3823.5548,-157"/>
<polygon fill="#000000" stroke="#000000" points="3823.5548,-153.5001 3813.5548,-157 3823.5548,-160.5001 3823.5548,-153.5001"/>
</g>
<!-- TrafficBarComponent -->
<g id="node16" class="node">
<title>TrafficBarComponent</title>
<polygon fill="#ffffb3" stroke="#000000" points="4201.399,-122 4060.601,-122 4060.601,-86 4201.399,-86 4201.399,-122"/>
<text text-anchor="middle" x="4131" y="-99.8" font-family="Times,serif" font-size="14.00" fill="#000000">TrafficBarComponent</text>
</g>
<!-- TrafficBarComponent&#45;&gt;ECommerceModule -->
<g id="edge16" class="edge">
<title>TrafficBarComponent&#45;&gt;ECommerceModule</title>
<path fill="none" stroke="#000000" d="M4131,-122.1243C4131,-136.7832 4131,-155 4131,-155 4131,-155 3823.8011,-155 3823.8011,-155"/>
<polygon fill="#000000" stroke="#000000" points="3823.8011,-151.5001 3813.8011,-155 3823.8011,-158.5001 3823.8011,-151.5001"/>
</g>
<!-- TrafficCardsHeaderComponent -->
<g id="node17" class="node">
<title>TrafficCardsHeaderComponent</title>
<polygon fill="#ffffb3" stroke="#000000" points="4042.7542,-122 3849.2458,-122 3849.2458,-86 4042.7542,-86 4042.7542,-122"/>
<text text-anchor="middle" x="3946" y="-99.8" font-family="Times,serif" font-size="14.00" fill="#000000">TrafficCardsHeaderComponent</text>
</g>
<!-- TrafficCardsHeaderComponent&#45;&gt;ECommerceModule -->
<g id="edge17" class="edge">
<title>TrafficCardsHeaderComponent&#45;&gt;ECommerceModule</title>
<path fill="none" stroke="#000000" d="M3946,-122.2458C3946,-136.1772 3946,-153 3946,-153 3946,-153 3823.778,-153 3823.778,-153"/>
<polygon fill="#000000" stroke="#000000" points="3823.7781,-149.5001 3813.778,-153 3823.778,-156.5001 3823.7781,-149.5001"/>
</g>
<!-- CountryOrdersComponent -->
<g id="node18" class="node">
<title>CountryOrdersComponent</title>
<polygon fill="#ffffb3" stroke="#000000" points="3831.8075,-122 3666.1925,-122 3666.1925,-86 3831.8075,-86 3831.8075,-122"/>
<text text-anchor="middle" x="3749" y="-99.8" font-family="Times,serif" font-size="14.00" fill="#000000">CountryOrdersComponent</text>
</g>
<!-- CountryOrdersComponent&#45;&gt;ECommerceModule -->
<g id="edge18" class="edge">
<title>CountryOrdersComponent&#45;&gt;ECommerceModule</title>
<path fill="none" stroke="#000000" d="M3749,-122.1061C3749,-122.1061 3749,-140.991 3749,-140.991"/>
<polygon fill="#000000" stroke="#000000" points="3745.5001,-140.9909 3749,-150.991 3752.5001,-140.991 3745.5001,-140.9909"/>
</g>
<!-- CountryOrdersMapComponent -->
<g id="node19" class="node">
<title>CountryOrdersMapComponent</title>
<polygon fill="#ffffb3" stroke="#000000" points="3648.4664,-122 3457.5336,-122 3457.5336,-86 3648.4664,-86 3648.4664,-122"/>
<text text-anchor="middle" x="3553" y="-99.8" font-family="Times,serif" font-size="14.00" fill="#000000">CountryOrdersMapComponent</text>
</g>
<!-- CountryOrdersMapComponent&#45;&gt;ECommerceModule -->
<g id="edge19" class="edge">
<title>CountryOrdersMapComponent&#45;&gt;ECommerceModule</title>
<path fill="none" stroke="#000000" d="M3553,-122.2458C3553,-136.1772 3553,-153 3553,-153 3553,-153 3674.2791,-153 3674.2791,-153"/>
<polygon fill="#000000" stroke="#000000" points="3674.2791,-156.5001 3684.2791,-153 3674.279,-149.5001 3674.2791,-156.5001"/>
</g>
<!-- CountryOrdersChartComponent -->
<g id="node20" class="node">
<title>CountryOrdersChartComponent</title>
<polygon fill="#ffffb3" stroke="#000000" points="3439.41,-122 3242.59,-122 3242.59,-86 3439.41,-86 3439.41,-122"/>
<text text-anchor="middle" x="3341" y="-99.8" font-family="Times,serif" font-size="14.00" fill="#000000">CountryOrdersChartComponent</text>
</g>
<!-- CountryOrdersChartComponent&#45;&gt;ECommerceModule -->
<g id="edge20" class="edge">
<title>CountryOrdersChartComponent&#45;&gt;ECommerceModule</title>
<path fill="none" stroke="#000000" d="M3341,-122.1243C3341,-136.7832 3341,-155 3341,-155 3341,-155 3674.3512,-155 3674.3512,-155"/>
<polygon fill="#000000" stroke="#000000" points="3674.3512,-158.5001 3684.3512,-155 3674.3512,-151.5001 3674.3512,-158.5001"/>
</g>
<!-- ECommerceVisitorsAnalyticsComponent -->
<g id="node21" class="node">
<title>ECommerceVisitorsAnalyticsComponent</title>
<polygon fill="#ffffb3" stroke="#000000" points="3224.7878,-122 2975.2122,-122 2975.2122,-86 3224.7878,-86 3224.7878,-122"/>
<text text-anchor="middle" x="3100" y="-99.8" font-family="Times,serif" font-size="14.00" fill="#000000">ECommerceVisitorsAnalyticsComponent</text>
</g>
<!-- ECommerceVisitorsAnalyticsComponent&#45;&gt;ECommerceModule -->
<g id="edge21" class="edge">
<title>ECommerceVisitorsAnalyticsComponent&#45;&gt;ECommerceModule</title>
<path fill="none" stroke="#000000" d="M3100,-122.2396C3100,-137.5706 3100,-157 3100,-157 3100,-157 3674.3987,-157 3674.3987,-157"/>
<polygon fill="#000000" stroke="#000000" points="3674.3987,-160.5001 3684.3987,-157 3674.3987,-153.5001 3674.3987,-160.5001"/>
</g>
<!-- ECommerceVisitorsAnalyticsChartComponent -->
<g id="node22" class="node">
<title>ECommerceVisitorsAnalyticsChartComponent</title>
<polygon fill="#ffffb3" stroke="#000000" points="2957.3903,-122 2676.6097,-122 2676.6097,-86 2957.3903,-86 2957.3903,-122"/>
<text text-anchor="middle" x="2817" y="-99.8" font-family="Times,serif" font-size="14.00" fill="#000000">ECommerceVisitorsAnalyticsChartComponent</text>
</g>
<!-- ECommerceVisitorsAnalyticsChartComponent&#45;&gt;ECommerceModule -->
<g id="edge22" class="edge">
<title>ECommerceVisitorsAnalyticsChartComponent&#45;&gt;ECommerceModule</title>
<path fill="none" stroke="#000000" d="M2817,-122.0091C2817,-138.0494 2817,-159 2817,-159 2817,-159 3674.2035,-159 3674.2035,-159"/>
<polygon fill="#000000" stroke="#000000" points="3674.2036,-162.5001 3684.2035,-159 3674.2035,-155.5001 3674.2036,-162.5001"/>
</g>
<!-- ECommerceVisitorsStatisticsComponent -->
<g id="node23" class="node">
<title>ECommerceVisitorsStatisticsComponent</title>
<polygon fill="#ffffb3" stroke="#000000" points="2659.1895,-122 2412.8105,-122 2412.8105,-86 2659.1895,-86 2659.1895,-122"/>
<text text-anchor="middle" x="2536" y="-99.8" font-family="Times,serif" font-size="14.00" fill="#000000">ECommerceVisitorsStatisticsComponent</text>
</g>
<!-- ECommerceVisitorsStatisticsComponent&#45;&gt;ECommerceModule -->
<g id="edge23" class="edge">
<title>ECommerceVisitorsStatisticsComponent&#45;&gt;ECommerceModule</title>
<path fill="none" stroke="#000000" d="M2536,-122.0352C2536,-138.7344 2536,-161 2536,-161 2536,-161 3674.2127,-161 3674.2127,-161"/>
<polygon fill="#000000" stroke="#000000" points="3674.2127,-164.5001 3684.2127,-161 3674.2127,-157.5001 3674.2127,-164.5001"/>
</g>
<!-- ECommerceLegendChartComponent -->
<g id="node24" class="node">
<title>ECommerceLegendChartComponent</title>
<polygon fill="#ffffb3" stroke="#000000" points="2395.3917,-122 2170.6083,-122 2170.6083,-86 2395.3917,-86 2395.3917,-122"/>
<text text-anchor="middle" x="2283" y="-99.8" font-family="Times,serif" font-size="14.00" fill="#000000">ECommerceLegendChartComponent</text>
</g>
<!-- ECommerceLegendChartComponent&#45;&gt;ECommerceModule -->
<g id="edge24" class="edge">
<title>ECommerceLegendChartComponent&#45;&gt;ECommerceModule</title>
<path fill="none" stroke="#000000" d="M2283,-122.0225C2283,-139.3734 2283,-163 2283,-163 2283,-163 3674.1162,-163 3674.1162,-163"/>
<polygon fill="#000000" stroke="#000000" points="3674.1163,-166.5001 3684.1162,-163 3674.1162,-159.5001 3674.1163,-166.5001"/>
</g>
<!-- ECommerceUserActivityComponent -->
<g id="node25" class="node">
<title>ECommerceUserActivityComponent</title>
<polygon fill="#ffffb3" stroke="#000000" points="2152.6175,-122 1929.3825,-122 1929.3825,-86 2152.6175,-86 2152.6175,-122"/>
<text text-anchor="middle" x="2041" y="-99.8" font-family="Times,serif" font-size="14.00" fill="#000000">ECommerceUserActivityComponent</text>
</g>
<!-- ECommerceUserActivityComponent&#45;&gt;ECommerceModule -->
<g id="edge25" class="edge">
<title>ECommerceUserActivityComponent&#45;&gt;ECommerceModule</title>
<path fill="none" stroke="#000000" d="M2041,-122.302C2041,-140.2699 2041,-165 2041,-165 2041,-165 3674.3886,-165 3674.3886,-165"/>
<polygon fill="#000000" stroke="#000000" points="3674.3887,-168.5001 3684.3886,-165 3674.3886,-161.5001 3674.3887,-168.5001"/>
</g>
<!-- ECommerceProgressSectionComponent -->
<g id="node26" class="node">
<title>ECommerceProgressSectionComponent</title>
<polygon fill="#ffffb3" stroke="#000000" points="1910.5083,-122 1669.4917,-122 1669.4917,-86 1910.5083,-86 1910.5083,-122"/>
<text text-anchor="middle" x="1790" y="-99.8" font-family="Times,serif" font-size="14.00" fill="#000000">ECommerceProgressSectionComponent</text>
</g>
<!-- ECommerceProgressSectionComponent&#45;&gt;ECommerceModule -->
<g id="edge26" class="edge">
<title>ECommerceProgressSectionComponent&#45;&gt;ECommerceModule</title>
<path fill="none" stroke="#000000" d="M1790,-122.2222C1790,-140.8285 1790,-167 1790,-167 1790,-167 3674.3785,-167 3674.3785,-167"/>
<polygon fill="#000000" stroke="#000000" points="3674.3786,-170.5001 3684.3785,-167 3674.3785,-163.5001 3674.3786,-170.5001"/>
</g>
<!-- SlideOutComponent -->
<g id="node27" class="node">
<title>SlideOutComponent</title>
<polygon fill="#ffffb3" stroke="#000000" points="1651.608,-122 1520.392,-122 1520.392,-86 1651.608,-86 1651.608,-122"/>
<text text-anchor="middle" x="1586" y="-99.8" font-family="Times,serif" font-size="14.00" fill="#000000">SlideOutComponent</text>
</g>
<!-- SlideOutComponent&#45;&gt;ECommerceModule -->
<g id="edge27" class="edge">
<title>SlideOutComponent&#45;&gt;ECommerceModule</title>
<path fill="none" stroke="#000000" d="M1586,-122.1061C1586,-141.3391 1586,-169 1586,-169 1586,-169 3674.2657,-169 3674.2657,-169"/>
<polygon fill="#000000" stroke="#000000" points="3674.2657,-172.5001 3684.2657,-169 3674.2657,-165.5001 3674.2657,-172.5001"/>
</g>
<!-- EarningCardComponent -->
<g id="node28" class="node">
<title>EarningCardComponent</title>
<polygon fill="#ffffb3" stroke="#000000" points="1502.3627,-122 1349.6373,-122 1349.6373,-86 1502.3627,-86 1502.3627,-122"/>
<text text-anchor="middle" x="1426" y="-99.8" font-family="Times,serif" font-size="14.00" fill="#000000">EarningCardComponent</text>
</g>
<!-- EarningCardComponent&#45;&gt;ECommerceModule -->
<g id="edge28" class="edge">
<title>EarningCardComponent&#45;&gt;ECommerceModule</title>
<path fill="none" stroke="#000000" d="M1426,-122.308C1426,-142.1455 1426,-171 1426,-171 1426,-171 3674.4452,-171 3674.4452,-171"/>
<polygon fill="#000000" stroke="#000000" points="3674.4452,-174.5001 3684.4452,-171 3674.4451,-167.5001 3674.4452,-174.5001"/>
</g>
<!-- EarningCardFrontComponent -->
<g id="node29" class="node">
<title>EarningCardFrontComponent</title>
<polygon fill="#ffffb3" stroke="#000000" points="1331.6965,-122 1148.3035,-122 1148.3035,-86 1331.6965,-86 1331.6965,-122"/>
<text text-anchor="middle" x="1240" y="-99.8" font-family="Times,serif" font-size="14.00" fill="#000000">EarningCardFrontComponent</text>
</g>
<!-- EarningCardFrontComponent&#45;&gt;ECommerceModule -->
<g id="edge29" class="edge">
<title>EarningCardFrontComponent&#45;&gt;ECommerceModule</title>
<path fill="none" stroke="#000000" d="M1240,-122.1289C1240,-142.5724 1240,-173 1240,-173 1240,-173 3674.4581,-173 3674.4581,-173"/>
<polygon fill="#000000" stroke="#000000" points="3674.4581,-176.5001 3684.4581,-173 3674.4581,-169.5001 3674.4581,-176.5001"/>
</g>
<!-- EarningCardBackComponent -->
<g id="node30" class="node">
<title>EarningCardBackComponent</title>
<polygon fill="#ffffb3" stroke="#000000" points="1130.6288,-122 949.3712,-122 949.3712,-86 1130.6288,-86 1130.6288,-122"/>
<text text-anchor="middle" x="1040" y="-99.8" font-family="Times,serif" font-size="14.00" fill="#000000">EarningCardBackComponent</text>
</g>
<!-- EarningCardBackComponent&#45;&gt;ECommerceModule -->
<g id="edge30" class="edge">
<title>EarningCardBackComponent&#45;&gt;ECommerceModule</title>
<path fill="none" stroke="#000000" d="M1040,-122.2843C1040,-143.3211 1040,-175 1040,-175 1040,-175 3674.3763,-175 3674.3763,-175"/>
<polygon fill="#000000" stroke="#000000" points="3674.3763,-178.5001 3684.3763,-175 3674.3763,-171.5001 3674.3763,-178.5001"/>
</g>
<!-- EarningPieChartComponent -->
<g id="node31" class="node">
<title>EarningPieChartComponent</title>
<polygon fill="#ffffb3" stroke="#000000" points="931.1414,-122 756.8586,-122 756.8586,-86 931.1414,-86 931.1414,-122"/>
<text text-anchor="middle" x="844" y="-99.8" font-family="Times,serif" font-size="14.00" fill="#000000">EarningPieChartComponent</text>
</g>
<!-- EarningPieChartComponent&#45;&gt;ECommerceModule -->
<g id="edge31" class="edge">
<title>EarningPieChartComponent&#45;&gt;ECommerceModule</title>
<path fill="none" stroke="#000000" d="M844,-122.0449C844,-143.6623 844,-177 844,-177 844,-177 3674.2519,-177 3674.2519,-177"/>
<polygon fill="#000000" stroke="#000000" points="3674.252,-180.5001 3684.2519,-177 3674.2519,-173.5001 3674.252,-180.5001"/>
</g>
<!-- EarningLiveUpdateChartComponent -->
<g id="node32" class="node">
<title>EarningLiveUpdateChartComponent</title>
<polygon fill="#ffffb3" stroke="#000000" points="738.3375,-122 515.6625,-122 515.6625,-86 738.3375,-86 738.3375,-122"/>
<text text-anchor="middle" x="627" y="-99.8" font-family="Times,serif" font-size="14.00" fill="#000000">EarningLiveUpdateChartComponent</text>
</g>
<!-- EarningLiveUpdateChartComponent&#45;&gt;ECommerceModule -->
<g id="edge32" class="edge">
<title>EarningLiveUpdateChartComponent&#45;&gt;ECommerceModule</title>
<path fill="none" stroke="#000000" d="M627,-122.1554C627,-144.3519 627,-179 627,-179 627,-179 3674.1514,-179 3674.1514,-179"/>
<polygon fill="#000000" stroke="#000000" points="3674.1514,-182.5001 3684.1514,-179 3674.1513,-175.5001 3674.1514,-182.5001"/>
</g>
<!-- ThemeModule -->
<g id="node34" class="node">
<title>ThemeModule</title>
<polygon fill="#8dd3c7" stroke="#000000" points="492.4231,-122 489.4231,-126 468.4231,-126 465.4231,-122 393.5769,-122 393.5769,-86 492.4231,-86 492.4231,-122"/>
<text text-anchor="middle" x="443" y="-99.8" font-family="Times,serif" font-size="14.00" fill="#000000">ThemeModule</text>
</g>
<!-- ThemeModule&#45;&gt;ECommerceModule -->
<g id="edge33" class="edge">
<title>ThemeModule&#45;&gt;ECommerceModule</title>
<path fill="none" stroke="#000000" d="M443,-122.0908C443,-145.1328 443,-182 443,-182 443,-182 3674.4438,-182 3674.4438,-182"/>
<polygon fill="#000000" stroke="#000000" points="3674.4438,-185.5001 3684.4438,-182 3674.4437,-178.5001 3674.4438,-185.5001"/>
</g>
<!-- ChartsModule -->
<g id="node35" class="node">
<title>ChartsModule</title>
<polygon fill="#8dd3c7" stroke="#000000" points="376.0968,-122 373.0968,-126 352.0968,-126 349.0968,-122 279.9032,-122 279.9032,-86 376.0968,-86 376.0968,-122"/>
<text text-anchor="middle" x="328" y="-99.8" font-family="Times,serif" font-size="14.00" fill="#000000">ChartsModule</text>
</g>
<!-- ChartsModule&#45;&gt;ECommerceModule -->
<g id="edge34" class="edge">
<title>ChartsModule&#45;&gt;ECommerceModule</title>
<path fill="none" stroke="#000000" d="M328,-122.3228C328,-145.6602 328,-183 328,-183 328,-183 3674.4684,-183 3674.4684,-183"/>
<polygon fill="#000000" stroke="#000000" points="3674.4685,-186.5001 3684.4684,-183 3674.4684,-179.5001 3674.4685,-186.5001"/>
</g>
<!-- CountryOrdersMapService -->
<g id="node36" class="node">
<title>CountryOrdersMapService</title>
<ellipse fill="#fdb462" stroke="#000000" cx="140" cy="-104" rx="115.731" ry="18"/>
<text text-anchor="middle" x="140" y="-99.8" font-family="Times,serif" font-size="14.00" fill="#000000">CountryOrdersMapService</text>
</g>
<!-- CountryOrdersMapService&#45;&gt;ECommerceModule -->
<g id="edge35" class="edge">
<title>CountryOrdersMapService&#45;&gt;ECommerceModule</title>
<path fill="none" stroke="#000000" d="M140,-122.3802C140,-146.2785 140,-185 140,-185 140,-185 3674.4417,-185 3674.4417,-185"/>
<polygon fill="#000000" stroke="#000000" points="3674.4417,-188.5001 3684.4417,-185 3674.4417,-181.5001 3674.4417,-188.5001"/>
</g>
</g>
</svg>
