<?xml version="1.0" encoding="UTF-8" standalone="no"?>
<!DOCTYPE svg PUBLIC "-//W3C//DTD SVG 1.1//EN"
 "http://www.w3.org/Graphics/SVG/1.1/DTD/svg11.dtd">
<!-- Generated by graphviz version 2.40.1 (20161225.0304)
 -->
<!-- Title: dependencies Pages: 1 -->
<svg width="531pt" height="284pt"
 viewBox="0.00 0.00 531.00 284.00" xmlns="http://www.w3.org/2000/svg" xmlns:xlink="http://www.w3.org/1999/xlink">
<g id="graph0" class="graph" transform="scale(1 1) rotate(0) translate(4 280)">
<title>dependencies</title>
<polygon fill="#ffffff" stroke="transparent" points="-4,4 -4,-280 527,-280 527,4 -4,4"/>
<text text-anchor="start" x="240.5091" y="-42.4" font-family="sans-serif" font-weight="bold" font-size="14.00" fill="#000000">Legend</text>
<polygon fill="#ffffb3" stroke="transparent" points="27.5,-10 27.5,-30 47.5,-30 47.5,-10 27.5,-10"/>
<text text-anchor="start" x="51.129" y="-15.4" font-family="sans-serif" font-size="14.00" fill="#000000"> &#160;Declarations</text>
<polygon fill="#8dd3c7" stroke="transparent" points="140.5,-10 140.5,-30 160.5,-30 160.5,-10 140.5,-10"/>
<text text-anchor="start" x="164.2251" y="-15.4" font-family="sans-serif" font-size="14.00" fill="#000000"> &#160;Module</text>
<polygon fill="#80b1d3" stroke="transparent" points="226.5,-10 226.5,-30 246.5,-30 246.5,-10 226.5,-10"/>
<text text-anchor="start" x="250.2812" y="-15.4" font-family="sans-serif" font-size="14.00" fill="#000000"> &#160;Bootstrap</text>
<polygon fill="#fdb462" stroke="transparent" points="323.5,-10 323.5,-30 343.5,-30 343.5,-10 323.5,-10"/>
<text text-anchor="start" x="347.1732" y="-15.4" font-family="sans-serif" font-size="14.00" fill="#000000"> &#160;Providers</text>
<polygon fill="#fb8072" stroke="transparent" points="419.5,-10 419.5,-30 439.5,-30 439.5,-10 419.5,-10"/>
<text text-anchor="start" x="443.2258" y="-15.4" font-family="sans-serif" font-size="14.00" fill="#000000"> &#160;Exports</text>
<g id="clust1" class="cluster">
<title>cluster_ChartsModule</title>
<polygon fill="none" stroke="#000000" stroke-dasharray="1,5" points="8,-70 8,-268 515,-268 515,-70 8,-70"/>
</g>
<g id="clust3" class="cluster">
<title>cluster_ChartsModule_imports</title>
<polygon fill="none" stroke="#000000" points="130,-78 130,-130 404,-130 404,-78 130,-78"/>
</g>
<g id="clust4" class="cluster">
<title>cluster_ChartsModule_exports</title>
<polygon fill="none" stroke="#000000" points="16,-208 16,-260 507,-260 507,-208 16,-208"/>
</g>
<!-- ThemeModule -->
<g id="node1" class="node">
<title>ThemeModule</title>
<polygon fill="#8dd3c7" stroke="#000000" points="396.4231,-122 393.4231,-126 372.4231,-126 369.4231,-122 297.5769,-122 297.5769,-86 396.4231,-86 396.4231,-122"/>
<text text-anchor="middle" x="347" y="-99.8" font-family="Times,serif" font-size="14.00" fill="#000000">ThemeModule</text>
</g>
<!-- ChartsModule -->
<g id="node3" class="node">
<title>ChartsModule</title>
<polygon fill="#8dd3c7" stroke="#000000" points="326.0968,-187 323.0968,-191 302.0968,-191 299.0968,-187 229.9032,-187 229.9032,-151 326.0968,-151 326.0968,-187"/>
<text text-anchor="middle" x="278" y="-164.8" font-family="Times,serif" font-size="14.00" fill="#000000">ChartsModule</text>
</g>
<!-- ThemeModule&#45;&gt;ChartsModule -->
<g id="edge1" class="edge">
<title>ThemeModule&#45;&gt;ChartsModule</title>
<path fill="none" stroke="#000000" d="M311.9187,-122.1061C311.9187,-122.1061 311.9187,-140.991 311.9187,-140.991"/>
<polygon fill="#000000" stroke="#000000" points="308.4187,-140.9909 311.9187,-150.991 315.4187,-140.991 308.4187,-140.9909"/>
</g>
<!-- ChartsRoutingModule -->
<g id="node2" class="node">
<title>ChartsRoutingModule</title>
<polygon fill="#8dd3c7" stroke="#000000" points="279.7148,-122 276.7148,-126 255.7148,-126 252.7148,-122 138.2852,-122 138.2852,-86 279.7148,-86 279.7148,-122"/>
<text text-anchor="middle" x="209" y="-99.8" font-family="Times,serif" font-size="14.00" fill="#000000">ChartsRoutingModule</text>
</g>
<!-- ChartsRoutingModule&#45;&gt;ChartsModule -->
<g id="edge2" class="edge">
<title>ChartsRoutingModule&#45;&gt;ChartsModule</title>
<path fill="none" stroke="#000000" d="M254.7795,-122.1061C254.7795,-122.1061 254.7795,-140.991 254.7795,-140.991"/>
<polygon fill="#000000" stroke="#000000" points="251.2795,-140.9909 254.7795,-150.991 258.2795,-140.991 251.2795,-140.9909"/>
</g>
<!-- ChartjsPieComponent  -->
<g id="node4" class="node">
<title>ChartjsPieComponent </title>
<polygon fill="#fb8072" stroke="#000000" points="498.6579,-252 355.3421,-252 355.3421,-216 498.6579,-216 498.6579,-252"/>
<text text-anchor="middle" x="427" y="-229.8" font-family="Times,serif" font-size="14.00" fill="#000000">ChartjsPieComponent </text>
</g>
<!-- ChartsModule&#45;&gt;ChartjsPieComponent  -->
<g id="edge3" class="edge">
<title>ChartsModule&#45;&gt;ChartjsPieComponent </title>
<path fill="none" stroke="#000000" stroke-dasharray="5,2" d="M326.3349,-169C350.9785,-169 375.8161,-169 375.8161,-169 375.8161,-169 375.8161,-205.8939 375.8161,-205.8939"/>
<polygon fill="#000000" stroke="#000000" points="372.3162,-205.8938 375.8161,-215.8939 379.3162,-205.8939 372.3162,-205.8938"/>
</g>
<!-- D3PieComponent  -->
<g id="node5" class="node">
<title>D3PieComponent </title>
<polygon fill="#fb8072" stroke="#000000" points="337.8269,-252 218.1731,-252 218.1731,-216 337.8269,-216 337.8269,-252"/>
<text text-anchor="middle" x="278" y="-229.8" font-family="Times,serif" font-size="14.00" fill="#000000">D3PieComponent </text>
</g>
<!-- ChartsModule&#45;&gt;D3PieComponent  -->
<g id="edge4" class="edge">
<title>ChartsModule&#45;&gt;D3PieComponent </title>
<path fill="none" stroke="#000000" stroke-dasharray="5,2" d="M278,-187.1061C278,-187.1061 278,-205.991 278,-205.991"/>
<polygon fill="#000000" stroke="#000000" points="274.5001,-205.9909 278,-215.991 281.5001,-205.991 274.5001,-205.9909"/>
</g>
<!-- D3AdvancedPieComponent  -->
<g id="node6" class="node">
<title>D3AdvancedPieComponent </title>
<polygon fill="#fb8072" stroke="#000000" points="200.0777,-252 23.9223,-252 23.9223,-216 200.0777,-216 200.0777,-252"/>
<text text-anchor="middle" x="112" y="-229.8" font-family="Times,serif" font-size="14.00" fill="#000000">D3AdvancedPieComponent </text>
</g>
<!-- ChartsModule&#45;&gt;D3AdvancedPieComponent  -->
<g id="edge5" class="edge">
<title>ChartsModule&#45;&gt;D3AdvancedPieComponent </title>
<path fill="none" stroke="#000000" stroke-dasharray="5,2" d="M229.7076,-169C200.6874,-169 169.3407,-169 169.3407,-169 169.3407,-169 169.3407,-205.8939 169.3407,-205.8939"/>
<polygon fill="#000000" stroke="#000000" points="165.8407,-205.8938 169.3407,-215.8939 172.8407,-205.8939 165.8407,-205.8938"/>
</g>
</g>
</svg>
