<?xml version="1.0" encoding="UTF-8" standalone="no"?>
<!DOCTYPE svg PUBLIC "-//W3C//DTD SVG 1.1//EN"
 "http://www.w3.org/Graphics/SVG/1.1/DTD/svg11.dtd">
<!-- Generated by graphviz version 2.40.1 (20161225.0304)
 -->
<!-- Title: dependencies Pages: 1 -->
<svg width="504pt" height="211pt"
 viewBox="0.00 0.00 504.00 211.00" xmlns="http://www.w3.org/2000/svg" xmlns:xlink="http://www.w3.org/1999/xlink">
<g id="graph0" class="graph" transform="scale(1 1) rotate(0) translate(4 207)">
<title>dependencies</title>
<polygon fill="#ffffff" stroke="transparent" points="-4,4 -4,-207 500,-207 500,4 -4,4"/>
<text text-anchor="start" x="227.0091" y="-42.4" font-family="sans-serif" font-weight="bold" font-size="14.00" fill="#000000">Legend</text>
<polygon fill="#ffffb3" stroke="transparent" points="14,-10 14,-30 34,-30 34,-10 14,-10"/>
<text text-anchor="start" x="37.629" y="-15.4" font-family="sans-serif" font-size="14.00" fill="#000000"> &#160;Declarations</text>
<polygon fill="#8dd3c7" stroke="transparent" points="127,-10 127,-30 147,-30 147,-10 127,-10"/>
<text text-anchor="start" x="150.7251" y="-15.4" font-family="sans-serif" font-size="14.00" fill="#000000"> &#160;Module</text>
<polygon fill="#80b1d3" stroke="transparent" points="213,-10 213,-30 233,-30 233,-10 213,-10"/>
<text text-anchor="start" x="236.7812" y="-15.4" font-family="sans-serif" font-size="14.00" fill="#000000"> &#160;Bootstrap</text>
<polygon fill="#fdb462" stroke="transparent" points="310,-10 310,-30 330,-30 330,-10 310,-10"/>
<text text-anchor="start" x="333.6732" y="-15.4" font-family="sans-serif" font-size="14.00" fill="#000000"> &#160;Providers</text>
<polygon fill="#fb8072" stroke="transparent" points="406,-10 406,-30 426,-30 426,-10 406,-10"/>
<text text-anchor="start" x="429.7258" y="-15.4" font-family="sans-serif" font-size="14.00" fill="#000000"> &#160;Exports</text>
<g id="clust1" class="cluster">
<title>cluster_EditorsModule</title>
<polygon fill="none" stroke="#000000" stroke-dasharray="1,5" points="101,-70 101,-195 395,-195 395,-70 101,-70"/>
</g>
<g id="clust3" class="cluster">
<title>cluster_EditorsModule_imports</title>
<polygon fill="none" stroke="#000000" points="109,-78 109,-130 387,-130 387,-78 109,-78"/>
</g>
<!-- ThemeModule -->
<g id="node1" class="node">
<title>ThemeModule</title>
<polygon fill="#8dd3c7" stroke="#000000" points="379.4231,-122 376.4231,-126 355.4231,-126 352.4231,-122 280.5769,-122 280.5769,-86 379.4231,-86 379.4231,-122"/>
<text text-anchor="middle" x="330" y="-99.8" font-family="Times,serif" font-size="14.00" fill="#000000">ThemeModule</text>
</g>
<!-- EditorsModule -->
<g id="node3" class="node">
<title>EditorsModule</title>
<polygon fill="#8dd3c7" stroke="#000000" points="309.9888,-187 306.9888,-191 285.9888,-191 282.9888,-187 210.0112,-187 210.0112,-151 309.9888,-151 309.9888,-187"/>
<text text-anchor="middle" x="260" y="-164.8" font-family="Times,serif" font-size="14.00" fill="#000000">EditorsModule</text>
</g>
<!-- ThemeModule&#45;&gt;EditorsModule -->
<g id="edge1" class="edge">
<title>ThemeModule&#45;&gt;EditorsModule</title>
<path fill="none" stroke="#000000" d="M295.3917,-122.1061C295.3917,-122.1061 295.3917,-140.991 295.3917,-140.991"/>
<polygon fill="#000000" stroke="#000000" points="291.8917,-140.9909 295.3917,-150.991 298.8917,-140.991 291.8917,-140.9909"/>
</g>
<!-- EditorsRoutingModule -->
<g id="node2" class="node">
<title>EditorsRoutingModule</title>
<polygon fill="#8dd3c7" stroke="#000000" points="262.6066,-122 259.6066,-126 238.6066,-126 235.6066,-122 117.3934,-122 117.3934,-86 262.6066,-86 262.6066,-122"/>
<text text-anchor="middle" x="190" y="-99.8" font-family="Times,serif" font-size="14.00" fill="#000000">EditorsRoutingModule</text>
</g>
<!-- EditorsRoutingModule&#45;&gt;EditorsModule -->
<g id="edge2" class="edge">
<title>EditorsRoutingModule&#45;&gt;EditorsModule</title>
<path fill="none" stroke="#000000" d="M236.2795,-122.1061C236.2795,-122.1061 236.2795,-140.991 236.2795,-140.991"/>
<polygon fill="#000000" stroke="#000000" points="232.7795,-140.9909 236.2795,-150.991 239.7795,-140.991 232.7795,-140.9909"/>
</g>
</g>
</svg>
