<?xml version="1.0" encoding="UTF-8" standalone="no"?>
<!DOCTYPE svg PUBLIC "-//W3C//DTD SVG 1.1//EN"
 "http://www.w3.org/Graphics/SVG/1.1/DTD/svg11.dtd">
<!-- Generated by graphviz version 2.40.1 (20161225.0304)
 -->
<!-- Title: dependencies Pages: 1 -->
<svg width="504pt" height="211pt"
 viewBox="0.00 0.00 504.00 211.00" xmlns="http://www.w3.org/2000/svg" xmlns:xlink="http://www.w3.org/1999/xlink">
<g id="graph0" class="graph" transform="scale(1 1) rotate(0) translate(4 207)">
<title>dependencies</title>
<polygon fill="#ffffff" stroke="transparent" points="-4,4 -4,-207 500,-207 500,4 -4,4"/>
<text text-anchor="start" x="227.0091" y="-42.4" font-family="sans-serif" font-weight="bold" font-size="14.00" fill="#000000">Legend</text>
<polygon fill="#ffffb3" stroke="transparent" points="14,-10 14,-30 34,-30 34,-10 14,-10"/>
<text text-anchor="start" x="37.629" y="-15.4" font-family="sans-serif" font-size="14.00" fill="#000000"> &#160;Declarations</text>
<polygon fill="#8dd3c7" stroke="transparent" points="127,-10 127,-30 147,-30 147,-10 127,-10"/>
<text text-anchor="start" x="150.7251" y="-15.4" font-family="sans-serif" font-size="14.00" fill="#000000"> &#160;Module</text>
<polygon fill="#80b1d3" stroke="transparent" points="213,-10 213,-30 233,-30 233,-10 213,-10"/>
<text text-anchor="start" x="236.7812" y="-15.4" font-family="sans-serif" font-size="14.00" fill="#000000"> &#160;Bootstrap</text>
<polygon fill="#fdb462" stroke="transparent" points="310,-10 310,-30 330,-30 330,-10 310,-10"/>
<text text-anchor="start" x="333.6732" y="-15.4" font-family="sans-serif" font-size="14.00" fill="#000000"> &#160;Providers</text>
<polygon fill="#fb8072" stroke="transparent" points="406,-10 406,-30 426,-30 426,-10 406,-10"/>
<text text-anchor="start" x="429.7258" y="-15.4" font-family="sans-serif" font-size="14.00" fill="#000000"> &#160;Exports</text>
<g id="clust1" class="cluster">
<title>cluster_BillOfMaterialsModule</title>
<polygon fill="none" stroke="#000000" stroke-dasharray="1,5" points="69,-70 69,-195 427,-195 427,-70 69,-70"/>
</g>
<g id="clust2" class="cluster">
<title>cluster_BillOfMaterialsModule_declarations</title>
<polygon fill="none" stroke="#000000" points="295,-78 295,-130 419,-130 419,-78 295,-78"/>
</g>
<g id="clust4" class="cluster">
<title>cluster_BillOfMaterialsModule_imports</title>
<polygon fill="none" stroke="#000000" points="77,-78 77,-130 287,-130 287,-78 77,-78"/>
</g>
<!-- BomComponent -->
<g id="node1" class="node">
<title>BomComponent</title>
<polygon fill="#ffffb3" stroke="#000000" points="411.0605,-122 302.9395,-122 302.9395,-86 411.0605,-86 411.0605,-122"/>
<text text-anchor="middle" x="357" y="-99.8" font-family="Times,serif" font-size="14.00" fill="#000000">BomComponent</text>
</g>
<!-- BillOfMaterialsModule -->
<g id="node2" class="node">
<title>BillOfMaterialsModule</title>
<polygon fill="#8dd3c7" stroke="#000000" points="337.1909,-187 334.1909,-191 313.1909,-191 310.1909,-187 188.8091,-187 188.8091,-151 337.1909,-151 337.1909,-187"/>
<text text-anchor="middle" x="263" y="-164.8" font-family="Times,serif" font-size="14.00" fill="#000000">BillOfMaterialsModule</text>
</g>
<!-- BomComponent&#45;&gt;BillOfMaterialsModule -->
<g id="edge1" class="edge">
<title>BomComponent&#45;&gt;BillOfMaterialsModule</title>
<path fill="none" stroke="#000000" d="M319.9078,-122.1061C319.9078,-122.1061 319.9078,-140.991 319.9078,-140.991"/>
<polygon fill="#000000" stroke="#000000" points="316.4079,-140.9909 319.9078,-150.991 323.4079,-140.991 316.4079,-140.9909"/>
</g>
<!-- BillOfMaterialsRoutingModule -->
<g id="node3" class="node">
<title>BillOfMaterialsRoutingModule</title>
<polygon fill="#8dd3c7" stroke="#000000" points="278.8088,-122 275.8088,-126 254.8088,-126 251.8088,-122 85.1912,-122 85.1912,-86 278.8088,-86 278.8088,-122"/>
<text text-anchor="middle" x="182" y="-99.8" font-family="Times,serif" font-size="14.00" fill="#000000">BillOfMaterialsRoutingModule</text>
</g>
<!-- BillOfMaterialsRoutingModule&#45;&gt;BillOfMaterialsModule -->
<g id="edge2" class="edge">
<title>BillOfMaterialsRoutingModule&#45;&gt;BillOfMaterialsModule</title>
<path fill="none" stroke="#000000" d="M233.7795,-122.1061C233.7795,-122.1061 233.7795,-140.991 233.7795,-140.991"/>
<polygon fill="#000000" stroke="#000000" points="230.2795,-140.9909 233.7795,-150.991 237.2795,-140.991 230.2795,-140.9909"/>
</g>
</g>
</svg>
